<svg width="39" height="24" viewBox="0 0 39 24" fill="none" xmlns="http://www.w3.org/2000/svg">
<g id="Group 427319487">
<rect id="Rectangle 362" x="0.400024" width="38.4" height="24" rx="3" fill="#262626"/>
<g id="Group 273">
<path id="Vector" d="M23.7134 4.80005C22.7678 4.80005 21.8316 4.98628 20.958 5.34812C20.0845 5.70996 19.2907 6.24031 18.6222 6.90889C17.9536 7.57748 17.4232 8.37121 17.0614 9.24476C16.6995 10.1183 16.5133 11.0546 16.5133 12.0001C16.5133 12.9456 16.6995 13.8819 17.0614 14.7554C17.4232 15.629 17.9536 16.4227 18.6222 17.0913C19.2907 17.7599 20.0845 18.2902 20.958 18.6521C21.8316 19.0139 22.7678 19.2001 23.7134 19.2001C24.6589 19.2001 25.5951 19.0139 26.4687 18.6521C27.3422 18.2902 28.136 17.7599 28.8046 17.0913C29.4731 16.4227 30.0035 15.629 30.3653 14.7554C30.7272 13.8819 30.9134 12.9456 30.9134 12.0001C30.9134 11.0546 30.7272 10.1183 30.3653 9.24476C30.0035 8.37121 29.4731 7.57748 28.8046 6.90889C28.136 6.24031 27.3422 5.70996 26.4687 5.34812C25.5951 4.98628 24.6589 4.80005 23.7134 4.80005Z" fill="#FF9800"/>
<path id="Vector_2" d="M15.4856 4.80005C14.54 4.80005 13.6038 4.98628 12.7302 5.34812C11.8567 5.70996 11.063 6.24031 10.3944 6.90889C9.72578 7.57748 9.19543 8.37121 8.83359 9.24476C8.47176 10.1183 8.28552 11.0546 8.28552 12.0001C8.28552 12.9456 8.47176 13.8819 8.83359 14.7554C9.19543 15.629 9.72578 16.4227 10.3944 17.0913C11.063 17.7599 11.8567 18.2902 12.7302 18.6521C13.6038 19.0139 14.54 19.2001 15.4856 19.2001C16.4311 19.2001 17.3674 19.0139 18.2409 18.6521C19.1145 18.2902 19.9082 17.7599 20.5768 17.0913C21.2454 16.4227 21.7757 15.629 22.1376 14.7554C22.4994 13.8819 22.6856 12.9456 22.6856 12.0001C22.6856 11.0546 22.4994 10.1183 22.1376 9.24476C21.7757 8.37121 21.2454 7.57748 20.5768 6.90889C19.9082 6.24031 19.1145 5.70996 18.2409 5.34812C17.3674 4.98628 16.4311 4.80005 15.4856 4.80005Z" fill="#D50000"/>
<path id="Vector_3" d="M16.5133 12.0002C16.5133 14.4457 17.7353 16.6031 19.599 17.9043C21.4628 16.6031 22.6848 14.4457 22.6848 12.0002C22.6848 9.55479 21.4628 7.39734 19.599 6.09619C17.7353 7.39734 16.5133 9.55479 16.5133 12.0002Z" fill="#FF3D00"/>
</g>
</g>
</svg>
