<svg width="40" height="24" viewBox="0 0 40 24" fill="none" xmlns="http://www.w3.org/2000/svg">
<g id="Group 427319486">
<rect id="Rectangle 363" x="0.800049" width="38.4" height="24" rx="3" fill="#FF9800"/>
<path id="Vector" d="M16.8127 4.80005V6.49417H15.2001V17.5059H16.8127V19.2H18.4253V17.5059H20.0379V19.2H21.6505V17.4265C21.8646 17.3967 22.0977 17.3835 22.3056 17.3471C22.7906 17.1784 23.1875 16.9931 23.5906 16.7383C23.9119 16.4835 24.23 16.1559 24.4725 15.7324C24.715 15.3089 24.8001 14.8688 24.8001 14.2765C24.8001 13.5982 24.5418 13.0125 24.2205 12.503C23.8174 11.9934 23.3324 11.6659 22.6079 11.4971C23.1717 11.2423 23.5749 10.9081 23.8174 10.5706C24.0599 10.2331 24.2205 9.78645 24.2205 9.19417C24.2205 8.68461 24.1544 8.26108 23.9938 7.92358C23.8331 7.58608 23.5843 7.24527 23.2631 7.07652C22.9418 6.90777 22.6142 6.73902 22.1292 6.65299C21.9717 6.62652 21.8111 6.60005 21.6505 6.57358V4.80005H20.0379V6.49417H18.4253V4.80005H16.8127ZM17.619 8.18828H19.9623C20.2048 8.18828 20.4316 8.18167 20.5922 8.2677C20.8347 8.2677 21.0111 8.36696 21.1717 8.45299C21.3324 8.53902 21.493 8.60189 21.5749 8.77064C21.6568 8.93939 21.7261 9.12468 21.7261 9.37946C21.7261 9.88902 21.6442 10.2166 21.3229 10.3853C21.0016 10.6401 20.6741 10.7295 20.1891 10.7295H17.619V8.18828ZM17.619 12.4236H20.441C21.0048 12.4236 21.4993 12.5923 21.9024 12.8471C22.3056 13.1019 22.4568 13.6048 22.4568 14.1971C22.4568 14.4519 22.3875 14.796 22.3056 14.9648C22.145 15.2195 21.9623 15.3817 21.8016 15.4677C21.641 15.5537 21.4142 15.6464 21.1717 15.7324C20.9292 15.8184 20.6079 15.8118 20.3654 15.8118H17.619V12.4236Z" fill="#262626"/>
</g>
</svg>
