<svg xmlns="http://www.w3.org/2000/svg" width="24" height="24" viewBox="0 0 24 24" fill="none">
  <path d="M18.995 5.00043C18.7352 5.00818 18.4886 5.11676 18.3075 5.30317L8.01449 15.5961L4.72152 12.3032C4.62937 12.2072 4.51901 12.1306 4.39688 12.0778C4.27475 12.025 4.14332 11.9971 4.01027 11.9958C3.87723 11.9944 3.74526 12.0196 3.62208 12.0699C3.49891 12.1202 3.387 12.1946 3.29292 12.2886C3.19884 12.3827 3.12448 12.4946 3.07419 12.6178C3.0239 12.741 2.9987 12.8729 3.00005 13.006C3.00141 13.139 3.02929 13.2705 3.08208 13.3926C3.13486 13.5147 3.21148 13.6251 3.30746 13.7172L7.30746 17.7172C7.495 17.9047 7.74932 18.01 8.01449 18.01C8.27966 18.01 8.53398 17.9047 8.72152 17.7172L19.7215 6.71723C19.866 6.57677 19.9647 6.39593 20.0047 6.19841C20.0446 6.00089 20.024 5.7959 19.9455 5.61032C19.8669 5.42473 19.7341 5.2672 19.5645 5.15837C19.3949 5.04955 19.1964 4.99449 18.995 5.00043Z" fill="#1DB954"/>
</svg>