<svg xmlns="http://www.w3.org/2000/svg" width="24" height="24" viewBox="0 0 24 24" fill="none">
  <path d="M5.9902 4.99018C5.79126 4.99023 5.59687 5.04961 5.43186 5.16073C5.26685 5.27184 5.13872 5.42964 5.06387 5.61395C4.98901 5.79826 4.97082 6.00071 5.01162 6.19542C5.05243 6.39012 5.15037 6.56823 5.29293 6.70698L10.5859 11.9999L5.29293 17.2929C5.19696 17.3851 5.12033 17.4954 5.06755 17.6176C5.01476 17.7397 4.98688 17.8711 4.98553 18.0042C4.98417 18.1372 5.00938 18.2692 5.05967 18.3924C5.10996 18.5155 5.18432 18.6274 5.2784 18.7215C5.37248 18.8156 5.48438 18.89 5.60756 18.9402C5.73073 18.9905 5.86271 19.0157 5.99575 19.0144C6.12879 19.013 6.26022 18.9851 6.38235 18.9324C6.50448 18.8796 6.61485 18.803 6.70699 18.707L12 13.414L17.2929 18.707C17.3851 18.803 17.4954 18.8796 17.6176 18.9324C17.7397 18.9851 17.8711 19.013 18.0042 19.0144C18.1372 19.0157 18.2692 18.9905 18.3924 18.9402C18.5155 18.89 18.6275 18.8156 18.7215 18.7215C18.8156 18.6274 18.89 18.5155 18.9403 18.3924C18.9906 18.2692 19.0158 18.1372 19.0144 18.0042C19.0131 17.8711 18.9852 17.7397 18.9324 17.6176C18.8796 17.4954 18.803 17.3851 18.707 17.2929L13.414 11.9999L18.707 6.70698C18.8515 6.56652 18.9502 6.38567 18.9902 6.18815C19.0301 5.99063 19.0095 5.78565 18.9309 5.60007C18.8524 5.41448 18.7196 5.25695 18.55 5.14812C18.3804 5.03929 18.1819 4.98424 17.9804 4.99018C17.7206 4.99792 17.4741 5.1065 17.2929 5.29292L12 10.5859L6.70699 5.29292C6.6138 5.19712 6.50236 5.12098 6.37924 5.06898C6.25613 5.01698 6.12384 4.99019 5.9902 4.99018Z" fill="#CE3838"/>
</svg>