<svg xmlns="http://www.w3.org/2000/svg" width="25" height="24" viewBox="0 0 25 24" fill="none">
  <path d="M3.5 2C2.948 2 2.5 2.448 2.5 3V13C2.5 13.552 2.948 14 3.5 14H21.5C22.052 14 22.5 13.552 22.5 13V3C22.5 2.448 22.052 2 21.5 2H3.5ZM5.41211 4H19.5879C19.6625 4.21031 19.7831 4.40132 19.9409 4.55911C20.0987 4.7169 20.2897 4.83749 20.5 4.91211V11.0879C20.2897 11.1625 20.0987 11.2831 19.9409 11.4409C19.7831 11.5987 19.6625 11.7897 19.5879 12H5.41211C5.33749 11.7897 5.2169 11.5987 5.05911 11.4409C4.90132 11.2831 4.71031 11.1625 4.5 11.0879V4.91211C4.71031 4.83749 4.90132 4.7169 5.05911 4.55911C5.2169 4.40132 5.33749 4.21031 5.41211 4ZM12.5 5C11.7044 5 10.9413 5.31607 10.3787 5.87868C9.81607 6.44129 9.5 7.20435 9.5 8C9.5 8.79565 9.81607 9.55871 10.3787 10.1213C10.9413 10.6839 11.7044 11 12.5 11C13.2956 11 14.0587 10.6839 14.6213 10.1213C15.1839 9.55871 15.5 8.79565 15.5 8C15.5 7.20435 15.1839 6.44129 14.6213 5.87868C14.0587 5.31607 13.2956 5 12.5 5ZM7.5 7C6.948 7 6.5 7.447 6.5 8C6.5 8.553 6.948 9 7.5 9C8.052 9 8.5 8.553 8.5 8C8.5 7.447 8.052 7 7.5 7ZM17.5 7C16.948 7 16.5 7.447 16.5 8C16.5 8.553 16.948 9 17.5 9C18.052 9 18.5 8.553 18.5 8C18.5 7.447 18.052 7 17.5 7ZM12.4844 14.9863C12.2195 14.9905 11.9671 15.0995 11.7825 15.2896C11.598 15.4796 11.4964 15.7351 11.5 16V18H9.26758C8.81458 18 8.58525 18.5481 8.90625 18.8691L11.7109 21.6738C12.1469 22.1098 12.8531 22.1098 13.2891 21.6738L16.0938 18.8691C16.4148 18.5481 16.1854 18 15.7324 18H13.5V16C13.5018 15.8662 13.4768 15.7334 13.4264 15.6095C13.376 15.4855 13.3012 15.373 13.2065 15.2784C13.1118 15.1839 12.9991 15.1094 12.875 15.0592C12.751 15.009 12.6182 14.9842 12.4844 14.9863Z" fill="#686E80"/>
</svg>