<svg width="39" height="24" viewBox="0 0 39 24" fill="none" xmlns="http://www.w3.org/2000/svg">
<g id="Group 427319485">
<rect id="Rectangle 364" x="0.199951" width="38.4" height="24" rx="3" fill="#ECF2F9"/>
<g id="Group 274">
<path id="Vector" d="M11.4736 5.92847C11.0327 5.94958 10.4892 6.23029 10.1777 6.6245C9.89264 6.96503 9.64868 7.5172 9.71027 8.03547C10.2083 8.07859 10.7075 7.77636 11.0181 7.39271C11.3243 6.99763 11.5255 6.46874 11.4736 5.92847ZM15.7065 6.98369V14.903H16.9593V12.2632H18.6762C20.2513 12.2632 21.3813 11.1677 21.3813 9.62346C21.3813 8.07919 20.2714 6.98369 18.7175 6.98369H15.7065ZM16.9593 8.03891H18.4115C19.4921 8.03891 20.1267 8.62298 20.1267 9.62346C20.1267 10.6239 19.4974 11.2063 18.4115 11.2063H16.9593V8.03891ZM11.4168 8.30357C10.6909 8.30357 10.1711 8.69885 9.83229 8.69885C9.48824 8.69885 8.97403 8.30701 8.38008 8.30701C7.65414 8.30701 6.94352 8.76319 6.56867 9.42754C5.79874 10.7553 6.36905 12.7217 7.11347 13.8031C7.47864 14.3381 7.91846 14.903 8.51241 14.903C9.05708 14.8828 9.2403 14.573 9.8976 14.573C10.5593 14.573 10.7559 14.903 11.3498 14.903C11.9438 14.903 12.3037 14.3587 12.668 13.8237C13.0842 13.2166 13.2538 12.624 13.2643 12.5932C13.2547 12.5835 12.1131 12.1454 12.1026 10.8282C12.0929 9.72653 13.0013 9.20138 13.0426 9.17146C12.5296 8.40945 11.6801 8.30357 11.4822 8.30357H11.4168ZM24.2582 9.09585C22.9445 9.09585 21.9742 9.83259 21.9381 10.8454H23.0518C23.1433 10.3641 23.6 10.048 24.2238 10.0479C24.9806 10.0479 25.408 10.3939 25.408 11.031V11.471L23.8612 11.5534C22.4243 11.6388 21.6477 12.2139 21.6477 13.217C21.6477 14.2298 22.4499 14.903 23.6 14.903C24.377 14.903 25.0987 14.516 25.4251 13.9045H25.4509V14.8428H26.5955V10.9519C26.5946 9.82211 25.674 9.09585 24.2582 9.09585ZM27.0561 9.09585L29.1734 14.8755L29.06 15.2278C28.869 15.8235 28.5582 16.0527 28.0065 16.0527C27.9123 16.0527 27.7343 16.0435 27.6525 16.0338V16.9859C27.7352 17.0044 28.025 17.0152 28.1148 17.0152C29.3326 17.0152 29.9058 16.5562 30.4074 15.1659L32.6003 9.09585H31.3303L29.8591 13.7859H29.8334L28.3622 9.09585H27.0561ZM25.408 12.2632L25.4028 12.7221C25.4028 13.4542 24.7694 13.9749 23.9317 13.9749C23.2726 13.9749 22.8524 13.6647 22.8524 13.1878C22.8524 12.696 23.2571 12.4104 24.0296 12.3646L25.408 12.2632Z" fill="#24262E"/>
</g>
</g>
</svg>
