<svg xmlns="http://www.w3.org/2000/svg" width="25" height="24" viewBox="0 0 25 24" fill="none">
  <path d="M12.85 4C8.23852 4 4.5 7.73852 4.5 12.35C4.5 16.9615 8.23852 20.7 12.85 20.7C17.4615 20.7 21.2 16.9615 21.2 12.35C21.2 7.73852 17.4615 4 12.85 4ZM12.85 5.51818C16.6231 5.51818 19.6818 8.57694 19.6818 12.35C19.6818 16.1231 16.6231 19.1818 12.85 19.1818C9.07694 19.1818 6.01818 16.1231 6.01818 12.35C6.01818 8.57694 9.07694 5.51818 12.85 5.51818ZM9.81364 11.5909C9.39462 11.5909 9.05455 11.931 9.05455 12.35C9.05455 12.769 9.39462 13.1091 9.81364 13.1091H15.8864C16.3054 13.1091 16.6455 12.769 16.6455 12.35C16.6455 11.931 16.3054 11.5909 15.8864 11.5909H9.81364Z" fill="#2F7EF3"/>
</svg>