<svg xmlns="http://www.w3.org/2000/svg" width="24" height="24" viewBox="0 0 24 24" fill="none">
  <path d="M12 2C6.486 2 2 6.486 2 12C2 17.514 6.486 22 12 22C12.415 22 12.8216 21.9665 13.2236 21.917C13.0791 21.6385 13 21.3325 13 21V15C13 13.0305 15.767 12 18.5 12C19.7355 12 20.9783 12.21 21.9688 12.623C21.9818 12.4155 22 12.2105 22 12C22 6.486 17.514 2 12 2ZM12.25 6C12.6645 6 13 6.3355 13 6.75V12.75C13 13.1645 12.6645 13.5 12.25 13.5H8.25C7.8355 13.5 7.5 13.1645 7.5 12.75C7.5 12.3355 7.8355 12 8.25 12H11.5V6.75C11.5 6.3355 11.8355 6 12.25 6ZM18.5 13C16.0145 13 14 13.8955 14 15C14 16.1045 16.0145 17 18.5 17C20.9855 17 23 16.1045 23 15C23 13.8955 20.9855 13 18.5 13ZM14 16.5V18C14 19.105 16.015 20 18.5 20C20.985 20 23 19.105 23 18V16.5C23 17.605 20.985 18.5 18.5 18.5C16.015 18.5 14 17.605 14 16.5ZM14 19.5V21C14 22.105 16.015 23 18.5 23C20.985 23 23 22.105 23 21V19.5C23 20.605 20.985 21.5 18.5 21.5C16.015 21.5 14 20.605 14 19.5Z" fill="#686E80"/>
</svg>