<svg width="39" height="24" viewBox="0 0 39 24" fill="none" xmlns="http://www.w3.org/2000/svg">
<g id="Group 427319484">
<rect id="Rectangle 365" x="0.599976" width="38.4" height="24" rx="3" fill="#691B5F"/>
<g id="Page 1 2">
<g id="skrill logo web 1 rgb 1">
<path id="Fill 1 1" fill-rule="evenodd" clip-rule="evenodd" d="M25.5571 9.60848C26.1543 9.60848 26.641 9.11095 26.641 8.50035C26.641 7.88974 26.1543 7.39221 25.5571 7.39221C24.9599 7.39221 24.4733 7.88974 24.4733 8.50035C24.4733 9.11095 24.9599 9.60848 25.5571 9.60848ZM17.2515 10.1965C17.2072 10.3209 16.8533 11.3385 16.0017 12.3901V7.88974L13.7346 8.35335V16.5174H16.0017V13.9958C16.6543 15.0021 16.986 16.5174 16.986 16.5174H19.7067C19.4412 15.3753 18.2579 13.2721 18.2579 13.2721C19.3085 11.9039 19.773 10.4452 19.8504 10.2078H17.2515V10.1965ZM23.2236 10.1173C21.1886 10.1852 20.1601 11.1124 20.1601 12.9668V16.5174H22.372V13.6226C22.372 12.5145 22.5158 12.0396 23.7987 11.9944V10.1512C23.5885 10.106 23.2236 10.1173 23.2236 10.1173ZM9.9301 11.1011C9.65361 11.0785 9.01216 11.0445 9.01216 10.4452C9.01216 9.73286 9.94116 9.73286 10.284 9.73286C10.8923 9.73286 11.6886 9.91378 12.2526 10.0947C12.2526 10.0947 12.5623 10.2078 12.8387 10.3209L12.8609 10.3322V8.37596L12.8277 8.36466C12.1641 8.1272 11.3899 7.90105 9.95222 7.90105C7.47489 7.90105 6.6012 9.38233 6.6012 10.6375C6.6012 11.3611 6.91086 13.0799 9.74209 13.2834C9.98539 13.2947 10.6158 13.3399 10.6158 13.9506C10.6158 14.4594 10.096 14.7534 9.21123 14.7534C8.24906 14.7534 7.309 14.5046 6.74497 14.2672V16.2686C7.59655 16.4947 8.54766 16.6078 9.67573 16.6078C12.0978 16.6078 13.1816 15.2057 13.1816 13.8262C13.1816 12.2657 11.965 11.2368 9.9301 11.1011ZM24.4622 16.5174H26.6631V10.2078H24.4622V16.5174ZM30.7993 8.29681V16.5174H33.0002V7.88974L30.7993 8.29681ZM27.5921 8.29681L29.7929 7.88974V16.5174H27.5921V8.29681Z" fill="white"/>
</g>
</g>
</g>
</svg>
