<svg width="39" height="24" viewBox="0 0 39 24" fill="none" xmlns="http://www.w3.org/2000/svg">
<g id="Group 427319488">
<rect id="Rectangle 361" width="38.4" height="24" rx="3" fill="#00579F"/>
<g id="g4158 4">
<path id="polygon9 1" d="M17.3326 15.7339H15.2207L16.5281 7.40527H18.64L17.3326 15.7339Z" fill="white"/>
<path id="path11 1" d="M24.9765 7.55971C24.5742 7.40548 23.9206 7.19983 23.0657 7.19983C21.0041 7.19983 19.4956 8.33088 19.4956 9.97605C19.4956 11.1585 20.5515 11.8269 21.3561 12.2382C22.1606 12.6495 22.4623 12.9065 22.4623 13.2664C22.4623 13.8319 21.8086 14.089 21.2052 14.089C20.3504 14.089 19.8978 13.9347 19.2442 13.6263L18.9424 13.472L18.6407 15.3229C19.1436 15.5285 20.0487 15.7342 21.0041 15.7856C23.2166 15.7856 24.6748 14.6545 24.6748 12.9579C24.6748 12.0325 24.1217 11.2613 22.9149 10.6958C22.1606 10.3359 21.7081 10.0789 21.7081 9.66759C21.7081 9.3077 22.1103 8.94782 22.9149 8.94782C23.6189 8.94782 24.1217 9.10206 24.4737 9.25629L24.6748 9.35912L24.9765 7.55971Z" fill="white"/>
<path id="path13 1" d="M27.7907 12.7521C27.9415 12.2894 28.6455 10.4386 28.6455 10.4386C28.6455 10.4386 28.7963 9.92444 28.9472 9.61597L29.0981 10.3357C29.0981 10.3357 29.5003 12.3408 29.6009 12.7521C29.1986 12.7521 28.1929 12.7521 27.7907 12.7521ZM30.3551 7.40527H28.7461C28.2432 7.40527 27.841 7.55951 27.6398 8.07363L24.5222 15.7339H26.7347C26.7347 15.7339 27.0867 14.7057 27.1873 14.5001C27.4387 14.5001 29.6009 14.5001 29.9026 14.5001C29.9529 14.8085 30.154 15.7339 30.154 15.7339H32.1151L30.3551 7.40527Z" fill="white"/>
<path id="path15 1" d="M13.4103 7.40527L11.3487 13.112L11.1475 11.9809C10.7453 10.5928 9.53846 9.15327 8.23108 8.4335L10.1419 15.7339H12.3544L15.6731 7.40527H13.4103Z" fill="white"/>
<path id="path17 1" d="M9.43834 7.40527H6.01903L5.96875 7.55951C8.6338 8.22786 10.3937 9.92444 11.0977 11.9295L10.3435 8.07362C10.2932 7.55951 9.8909 7.40527 9.43834 7.40527Z" fill="#FAA61A"/>
</g>
</g>
</svg>
