<svg xmlns="http://www.w3.org/2000/svg" width="24" height="24" viewBox="0 0 24 24" fill="none">
  <path d="M19.0938 2.00194C18.9488 1.99519 18.8025 2.00403 18.6562 2.02928L12 3.18944V11H21V3.99999C21 3.40799 20.7401 2.84974 20.2871 2.46874C19.9474 2.18299 19.5286 2.02219 19.0938 2.00194ZM10 3.5371L4.65625 4.46874C3.69725 4.63674 3 5.46544 3 6.43944V11H10V3.5371ZM3 13V17.5605C3 18.5345 3.69725 19.3632 4.65625 19.5312L10 20.4629V13H3ZM12 13V20.8105L18.6562 21.9707C18.7712 21.9907 18.887 22 19.002 22C19.469 22 19.9231 21.8353 20.2871 21.5293C20.7401 21.1483 21 20.591 21 20V13H12Z" fill="#686E80"/>
</svg>