<svg width="17" height="20" viewBox="0 0 17 20" fill="none" xmlns="http://www.w3.org/2000/svg">
<path d="M4.21436 20C3.24769 20 2.42269 19.6583 1.73936 18.975C1.05602 18.2917 0.714355 17.4667 0.714355 16.5V3.5C0.714355 2.53333 1.05602 1.70833 1.73936 1.025C2.42269 0.341667 3.24769 0 4.21436 0H14.7144C15.2644 0 15.7352 0.195833 16.1269 0.5875C16.5185 0.979167 16.7144 1.45 16.7144 2V14.025C16.7144 14.2917 16.6477 14.5333 16.5144 14.75C16.381 14.9667 16.1977 15.1333 15.9644 15.25C15.731 15.3667 15.5477 15.5375 15.4144 15.7625C15.281 15.9875 15.2144 16.2333 15.2144 16.5C15.2144 16.7667 15.281 17.0167 15.4144 17.25C15.5477 17.4833 15.731 17.65 15.9644 17.75C16.181 17.8333 16.3602 17.9583 16.5019 18.125C16.6435 18.2917 16.7144 18.4917 16.7144 18.725V18.975C16.7144 19.2583 16.6185 19.5 16.4269 19.7C16.2352 19.9 15.9977 20 15.7144 20H4.21436ZM2.71436 13.325C2.94769 13.2083 3.18936 13.125 3.43936 13.075C3.68936 13.025 3.94769 13 4.21436 13H14.7144V2H4.21436C3.79769 2 3.44352 2.14583 3.15186 2.4375C2.86019 2.72917 2.71436 3.08333 2.71436 3.5V13.325ZM7.28936 9.225H10.1144L10.6144 10.625C10.6477 10.7417 10.7102 10.8333 10.8019 10.9C10.8935 10.9667 11.006 11 11.1394 11C11.3394 11 11.4977 10.9167 11.6144 10.75C11.731 10.5833 11.7477 10.4083 11.6644 10.225L9.46436 4.375C9.43102 4.25833 9.36436 4.16667 9.26436 4.1C9.16436 4.03333 9.04769 4 8.91436 4H8.46436C8.33102 4 8.21436 4.03333 8.11436 4.1C8.01436 4.16667 7.94769 4.25833 7.91436 4.375L5.71436 10.25C5.63102 10.4333 5.65186 10.6042 5.77686 10.7625C5.90186 10.9208 6.06436 11 6.26436 11C6.39769 11 6.51019 10.9667 6.60186 10.9C6.69352 10.8333 6.75602 10.7417 6.78936 10.625L7.28936 9.225ZM7.63936 8.2L8.66436 5.3H8.73936L9.76436 8.2H7.63936ZM4.21436 18H13.5394C13.4394 17.7667 13.3602 17.5292 13.3019 17.2875C13.2435 17.0458 13.2144 16.7833 13.2144 16.5C13.2144 16.2333 13.2394 15.975 13.2894 15.725C13.3394 15.475 13.4227 15.2333 13.5394 15H4.21436C3.78102 15 3.42269 15.1458 3.13936 15.4375C2.85602 15.7292 2.71436 16.0833 2.71436 16.5C2.71436 16.9333 2.85602 17.2917 3.13936 17.575C3.42269 17.8583 3.78102 18 4.21436 18Z" fill="#2F7EF3"/>
</svg>
