<svg width="21" height="21" viewBox="0 0 21 21" fill="none" xmlns="http://www.w3.org/2000/svg">
<path d="M2.71429 19V10C2.16429 10 1.69346 9.80417 1.30179 9.4125C0.910128 9.02083 0.714294 8.55 0.714294 8V6C0.714294 5.45 0.910128 4.97917 1.30179 4.5875C1.69346 4.19583 2.16429 4 2.71429 4H5.91429C5.83096 3.85 5.77679 3.69167 5.75179 3.525C5.72679 3.35833 5.71429 3.18333 5.71429 3C5.71429 2.16667 6.00596 1.45833 6.58929 0.875C7.17263 0.291667 7.88096 0 8.71429 0C9.09763 0 9.45596 0.0708333 9.78929 0.2125C10.1226 0.354167 10.431 0.55 10.7143 0.8C10.9976 0.533333 11.306 0.333333 11.6393 0.2C11.9726 0.0666667 12.331 0 12.7143 0C13.5476 0 14.256 0.291667 14.8393 0.875C15.4226 1.45833 15.7143 2.16667 15.7143 3C15.7143 3.18333 15.6976 3.35417 15.6643 3.5125C15.631 3.67083 15.581 3.83333 15.5143 4H18.7143C19.2643 4 19.7351 4.19583 20.1268 4.5875C20.5185 4.97917 20.7143 5.45 20.7143 6V8C20.7143 8.55 20.5185 9.02083 20.1268 9.4125C19.7351 9.80417 19.2643 10 18.7143 10V19C18.7143 19.55 18.5185 20.0208 18.1268 20.4125C17.7351 20.8042 17.2643 21 16.7143 21H4.71429C4.16429 21 3.69346 20.8042 3.30179 20.4125C2.91013 20.0208 2.71429 19.55 2.71429 19ZM12.7143 2C12.431 2 12.1935 2.09583 12.0018 2.2875C11.8101 2.47917 11.7143 2.71667 11.7143 3C11.7143 3.28333 11.8101 3.52083 12.0018 3.7125C12.1935 3.90417 12.431 4 12.7143 4C12.9976 4 13.2351 3.90417 13.4268 3.7125C13.6185 3.52083 13.7143 3.28333 13.7143 3C13.7143 2.71667 13.6185 2.47917 13.4268 2.2875C13.2351 2.09583 12.9976 2 12.7143 2ZM7.71429 3C7.71429 3.28333 7.81013 3.52083 8.00179 3.7125C8.19346 3.90417 8.43096 4 8.71429 4C8.99763 4 9.23513 3.90417 9.4268 3.7125C9.61846 3.52083 9.71429 3.28333 9.71429 3C9.71429 2.71667 9.61846 2.47917 9.4268 2.2875C9.23513 2.09583 8.99763 2 8.71429 2C8.43096 2 8.19346 2.09583 8.00179 2.2875C7.81013 2.47917 7.71429 2.71667 7.71429 3ZM2.71429 6V8H9.71429V6H2.71429ZM9.71429 19V10H4.71429V19H9.71429ZM11.7143 19H16.7143V10H11.7143V19ZM18.7143 8V6H11.7143V8H18.7143Z" fill="#2F7EF3"/>
</svg>
