<svg width="21" height="20" viewBox="0 0 21 20" fill="none" xmlns="http://www.w3.org/2000/svg">
<path d="M10.7143 15C10.9976 15 11.2351 14.9042 11.4268 14.7125C11.6185 14.5208 11.7143 14.2833 11.7143 14V10C11.7143 9.71667 11.6185 9.47917 11.4268 9.2875C11.2351 9.09583 10.9976 9 10.7143 9C10.431 9 10.1935 9.09583 10.0018 9.2875C9.81013 9.47917 9.71429 9.71667 9.71429 10V14C9.71429 14.2833 9.81013 14.5208 10.0018 14.7125C10.1935 14.9042 10.431 15 10.7143 15ZM10.7143 7C10.9976 7 11.2351 6.90417 11.4268 6.7125C11.6185 6.52083 11.7143 6.28333 11.7143 6C11.7143 5.71667 11.6185 5.47917 11.4268 5.2875C11.2351 5.09583 10.9976 5 10.7143 5C10.431 5 10.1935 5.09583 10.0018 5.2875C9.81013 5.47917 9.71429 5.71667 9.71429 6C9.71429 6.28333 9.81013 6.52083 10.0018 6.7125C10.1935 6.90417 10.431 7 10.7143 7ZM10.7143 20C9.33096 20 8.03096 19.7375 6.81429 19.2125C5.59763 18.6875 4.53929 17.975 3.63929 17.075C2.73929 16.175 2.02679 15.1167 1.50179 13.9C0.976794 12.6833 0.714294 11.3833 0.714294 10C0.714294 8.61667 0.976794 7.31667 1.50179 6.1C2.02679 4.88333 2.73929 3.825 3.63929 2.925C4.53929 2.025 5.59763 1.3125 6.81429 0.7875C8.03096 0.2625 9.33096 0 10.7143 0C12.0976 0 13.3976 0.2625 14.6143 0.7875C15.831 1.3125 16.8893 2.025 17.7893 2.925C18.6893 3.825 19.4018 4.88333 19.9268 6.1C20.4518 7.31667 20.7143 8.61667 20.7143 10C20.7143 11.3833 20.4518 12.6833 19.9268 13.9C19.4018 15.1167 18.6893 16.175 17.7893 17.075C16.8893 17.975 15.831 18.6875 14.6143 19.2125C13.3976 19.7375 12.0976 20 10.7143 20ZM10.7143 18C12.9476 18 14.8393 17.225 16.3893 15.675C17.9393 14.125 18.7143 12.2333 18.7143 10C18.7143 7.76667 17.9393 5.875 16.3893 4.325C14.8393 2.775 12.9476 2 10.7143 2C8.48096 2 6.58929 2.775 5.03929 4.325C3.48929 5.875 2.71429 7.76667 2.71429 10C2.71429 12.2333 3.48929 14.125 5.03929 15.675C6.58929 17.225 8.48096 18 10.7143 18Z" fill="#2F7EF3"/>
</svg>
