<svg xmlns="http://www.w3.org/2000/svg" width="25" height="24" viewBox="0 0 25 24" fill="none">
  <mask id="mask0_1_3827" style="mask-type:alpha" maskUnits="userSpaceOnUse" x="0" y="0" width="25" height="24">
    <rect x="0.714294" width="24" height="24" fill="#D9D9D9"/>
  </mask>
  <g mask="url(#mask0_1_3827)">
    <path d="M8.81429 14.75C9.04763 15.55 9.41013 16.1958 9.90179 16.6875C10.3935 17.1792 11.031 17.5167 11.8143 17.7V18.125C11.8143 18.3583 11.9018 18.5625 12.0768 18.7375C12.2518 18.9125 12.456 19 12.6893 19C12.9226 19 13.1268 18.9125 13.3018 18.7375C13.4768 18.5625 13.5643 18.3583 13.5643 18.125V17.75C14.3976 17.6 15.1143 17.275 15.7143 16.775C16.3143 16.275 16.6143 15.5333 16.6143 14.55C16.6143 13.85 16.4143 13.2083 16.0143 12.625C15.6143 12.0417 14.8143 11.5333 13.6143 11.1C12.6143 10.7667 11.9226 10.475 11.5393 10.225C11.156 9.975 10.9643 9.63333 10.9643 9.2C10.9643 8.76667 11.1185 8.425 11.4268 8.175C11.7351 7.925 12.181 7.8 12.7643 7.8C13.2976 7.8 13.7143 7.92917 14.0143 8.1875C14.3143 8.44583 14.531 8.76667 14.6643 9.15L16.2643 8.5C16.081 7.91667 15.7435 7.40833 15.2518 6.975C14.7601 6.54167 14.2143 6.3 13.6143 6.25V5.875C13.6143 5.64167 13.5268 5.4375 13.3518 5.2625C13.1768 5.0875 12.9726 5 12.7393 5C12.506 5 12.3018 5.0875 12.1268 5.2625C11.9518 5.4375 11.8643 5.64167 11.8643 5.875V6.25C11.031 6.43333 10.381 6.8 9.91429 7.35C9.44763 7.9 9.21429 8.51667 9.21429 9.2C9.21429 9.98333 9.44346 10.6167 9.90179 11.1C10.3601 11.5833 11.081 12 12.0643 12.35C13.1143 12.7333 13.8435 13.075 14.2518 13.375C14.6601 13.675 14.8643 14.0667 14.8643 14.55C14.8643 15.1 14.6685 15.5042 14.2768 15.7625C13.8851 16.0208 13.4143 16.15 12.8643 16.15C12.3143 16.15 11.8268 15.9792 11.4018 15.6375C10.9768 15.2958 10.6643 14.7833 10.4643 14.1L8.81429 14.75ZM12.7143 22C11.331 22 10.031 21.7375 8.81429 21.2125C7.59763 20.6875 6.53929 19.975 5.63929 19.075C4.73929 18.175 4.02679 17.1167 3.50179 15.9C2.97679 14.6833 2.71429 13.3833 2.71429 12C2.71429 10.6167 2.97679 9.31667 3.50179 8.1C4.02679 6.88333 4.73929 5.825 5.63929 4.925C6.53929 4.025 7.59763 3.3125 8.81429 2.7875C10.031 2.2625 11.331 2 12.7143 2C14.0976 2 15.3976 2.2625 16.6143 2.7875C17.831 3.3125 18.8893 4.025 19.7893 4.925C20.6893 5.825 21.4018 6.88333 21.9268 8.1C22.4518 9.31667 22.7143 10.6167 22.7143 12C22.7143 13.3833 22.4518 14.6833 21.9268 15.9C21.4018 17.1167 20.6893 18.175 19.7893 19.075C18.8893 19.975 17.831 20.6875 16.6143 21.2125C15.3976 21.7375 14.0976 22 12.7143 22ZM12.7143 20C14.9476 20 16.8393 19.225 18.3893 17.675C19.9393 16.125 20.7143 14.2333 20.7143 12C20.7143 9.76667 19.9393 7.875 18.3893 6.325C16.8393 4.775 14.9476 4 12.7143 4C10.481 4 8.58929 4.775 7.03929 6.325C5.48929 7.875 4.71429 9.76667 4.71429 12C4.71429 14.2333 5.48929 16.125 7.03929 17.675C8.58929 19.225 10.481 20 12.7143 20Z" fill="#2F7EF3"/>
  </g>
</svg>