<svg width="21" height="20" viewBox="0 0 21 20" fill="none" xmlns="http://www.w3.org/2000/svg">
<path d="M6.81429 12.75C7.04763 13.55 7.41013 14.1958 7.90179 14.6875C8.39346 15.1792 9.03096 15.5167 9.81429 15.7V16.125C9.81429 16.3583 9.90179 16.5625 10.0768 16.7375C10.2518 16.9125 10.456 17 10.6893 17C10.9226 17 11.1268 16.9125 11.3018 16.7375C11.4768 16.5625 11.5643 16.3583 11.5643 16.125V15.75C12.3976 15.6 13.1143 15.275 13.7143 14.775C14.3143 14.275 14.6143 13.5333 14.6143 12.55C14.6143 11.85 14.4143 11.2083 14.0143 10.625C13.6143 10.0417 12.8143 9.53333 11.6143 9.1C10.6143 8.76667 9.92263 8.475 9.53929 8.225C9.15596 7.975 8.96429 7.63333 8.96429 7.2C8.96429 6.76667 9.11846 6.425 9.4268 6.175C9.73513 5.925 10.181 5.8 10.7643 5.8C11.2976 5.8 11.7143 5.92917 12.0143 6.1875C12.3143 6.44583 12.531 6.76667 12.6643 7.15L14.2643 6.5C14.081 5.91667 13.7435 5.40833 13.2518 4.975C12.7601 4.54167 12.2143 4.3 11.6143 4.25V3.875C11.6143 3.64167 11.5268 3.4375 11.3518 3.2625C11.1768 3.0875 10.9726 3 10.7393 3C10.506 3 10.3018 3.0875 10.1268 3.2625C9.95179 3.4375 9.8643 3.64167 9.8643 3.875V4.25C9.03096 4.43333 8.38096 4.8 7.91429 5.35C7.44763 5.9 7.21429 6.51667 7.21429 7.2C7.21429 7.98333 7.44346 8.61667 7.90179 9.1C8.36013 9.58333 9.08096 10 10.0643 10.35C11.1143 10.7333 11.8435 11.075 12.2518 11.375C12.6601 11.675 12.8643 12.0667 12.8643 12.55C12.8643 13.1 12.6685 13.5042 12.2768 13.7625C11.8851 14.0208 11.4143 14.15 10.8643 14.15C10.3143 14.15 9.82679 13.9792 9.40179 13.6375C8.97679 13.2958 8.66429 12.7833 8.46429 12.1L6.81429 12.75ZM10.7143 20C9.33096 20 8.03096 19.7375 6.81429 19.2125C5.59763 18.6875 4.53929 17.975 3.63929 17.075C2.73929 16.175 2.02679 15.1167 1.50179 13.9C0.976794 12.6833 0.714294 11.3833 0.714294 10C0.714294 8.61667 0.976794 7.31667 1.50179 6.1C2.02679 4.88333 2.73929 3.825 3.63929 2.925C4.53929 2.025 5.59763 1.3125 6.81429 0.7875C8.03096 0.2625 9.33096 0 10.7143 0C12.0976 0 13.3976 0.2625 14.6143 0.7875C15.831 1.3125 16.8893 2.025 17.7893 2.925C18.6893 3.825 19.4018 4.88333 19.9268 6.1C20.4518 7.31667 20.7143 8.61667 20.7143 10C20.7143 11.3833 20.4518 12.6833 19.9268 13.9C19.4018 15.1167 18.6893 16.175 17.7893 17.075C16.8893 17.975 15.831 18.6875 14.6143 19.2125C13.3976 19.7375 12.0976 20 10.7143 20ZM10.7143 18C12.9476 18 14.8393 17.225 16.3893 15.675C17.9393 14.125 18.7143 12.2333 18.7143 10C18.7143 7.76667 17.9393 5.875 16.3893 4.325C14.8393 2.775 12.9476 2 10.7143 2C8.48096 2 6.58929 2.775 5.03929 4.325C3.48929 5.875 2.71429 7.76667 2.71429 10C2.71429 12.2333 3.48929 14.125 5.03929 15.675C6.58929 17.225 8.48096 18 10.7143 18Z" fill="#2F7EF3"/>
</svg>
