<svg width="15" height="22" viewBox="0 0 15 22" fill="none" xmlns="http://www.w3.org/2000/svg">
<path d="M6.71429 10.15V7C6.71429 6.71667 6.81013 6.47917 7.00179 6.2875C7.19346 6.09583 7.43096 6 7.71429 6C7.99763 6 8.23513 6.09583 8.42679 6.2875C8.61846 6.47917 8.71429 6.71667 8.71429 7V10.15L9.6143 9.275C9.79763 9.09167 10.0268 9 10.3018 9C10.5768 9 10.8143 9.1 11.0143 9.3C11.1976 9.48333 11.2893 9.71667 11.2893 10C11.2893 10.2833 11.1976 10.5167 11.0143 10.7L8.41429 13.3C8.21429 13.5 7.98096 13.6 7.71429 13.6C7.44763 13.6 7.21429 13.5 7.01429 13.3L4.41429 10.7C4.23096 10.5167 4.13513 10.2875 4.12679 10.0125C4.11846 9.7375 4.21429 9.5 4.41429 9.3C4.59763 9.11667 4.82679 9.02083 5.10179 9.0125C5.37679 9.00417 5.61429 9.09167 5.81429 9.275L6.71429 10.15ZM2.71429 22C2.16429 22 1.69346 21.8042 1.30179 21.4125C0.910128 21.0208 0.714294 20.55 0.714294 20V2C0.714294 1.45 0.910128 0.979167 1.30179 0.5875C1.69346 0.195833 2.16429 0 2.71429 0H12.7143C13.2643 0 13.7351 0.195833 14.1268 0.5875C14.5185 0.979167 14.7143 1.45 14.7143 2V20C14.7143 20.55 14.5185 21.0208 14.1268 21.4125C13.7351 21.8042 13.2643 22 12.7143 22H2.71429ZM2.71429 17V20H12.7143V17H2.71429ZM2.71429 15H12.7143V5H2.71429V15ZM2.71429 3H12.7143V2H2.71429V3ZM6.21429 19H9.21429C9.34763 19 9.46429 18.95 9.56429 18.85C9.6643 18.75 9.71429 18.6333 9.71429 18.5C9.71429 18.3667 9.6643 18.25 9.56429 18.15C9.46429 18.05 9.34763 18 9.21429 18H6.21429C6.08096 18 5.96429 18.05 5.86429 18.15C5.76429 18.25 5.71429 18.3667 5.71429 18.5C5.71429 18.6333 5.76429 18.75 5.86429 18.85C5.96429 18.95 6.08096 19 6.21429 19Z" fill="#2F7EF3"/>
</svg>
