<svg xmlns="http://www.w3.org/2000/svg" width="29" height="30" viewBox="0 0 29 30" fill="none">
  <path fill-rule="evenodd" clip-rule="evenodd" d="M1.8125 15.0004C1.8125 7.99325 7.49289 2.31287 14.5 2.31287C15.9845 2.31287 17.4076 2.56745 18.7292 3.03458L19.3333 1.32568C17.8203 0.790935 16.1931 0.500366 14.5 0.500366C6.49187 0.500366 0 6.99224 0 15.0004C0 23.0085 6.49187 29.5004 14.5 29.5004C22.5081 29.5004 29 23.0085 29 15.0004C29 13.1631 28.6579 11.4037 28.033 9.78374L26.342 10.436C26.8878 11.8512 27.1875 13.3897 27.1875 15.0004C27.1875 22.0075 21.5071 27.6879 14.5 27.6879C7.49289 27.6879 1.8125 22.0075 1.8125 15.0004ZM13.7079 12.3712C13.7079 13.3932 14.1897 14.1431 15.1533 14.6207C14.61 14.8595 14.1897 15.1986 13.8924 15.638C13.5952 16.0678 13.4465 16.5788 13.4465 17.1711C13.4465 17.8493 13.631 18.4367 14.0001 18.9334C14.3691 19.4206 14.8663 19.7931 15.4916 20.051C16.1272 20.3089 16.8294 20.4379 17.5983 20.4379C18.3671 20.4379 19.0642 20.3089 19.6895 20.051C20.3251 19.7931 20.8274 19.4206 21.1964 18.9334C21.5655 18.4367 21.75 17.8493 21.75 17.1711C21.75 16.5884 21.6014 16.0821 21.3041 15.6523C21.0068 15.2129 20.5814 14.869 20.0278 14.6207C20.4686 14.401 20.8171 14.1001 21.0734 13.718C21.34 13.3359 21.4732 12.887 21.4732 12.3712C21.4732 11.8554 21.3297 11.3873 21.0427 10.967C20.7556 10.5372 20.32 10.1981 19.7356 9.94972C19.1616 9.69182 18.4491 9.56287 17.5983 9.56287C16.7474 9.56287 16.0298 9.69182 15.4455 9.94972C14.8612 10.1981 14.4255 10.5372 14.1385 10.967C13.8514 11.3873 13.7079 11.8554 13.7079 12.3712ZM18.5516 11.841C18.7977 12.0512 18.9207 12.3521 18.9207 12.7437C18.9207 13.1162 18.7977 13.4123 18.5516 13.632C18.3056 13.8517 17.9878 13.9616 17.5983 13.9616C17.2087 13.9616 16.8909 13.8565 16.6449 13.6464C16.3989 13.4267 16.2759 13.1306 16.2759 12.758C16.2759 12.3664 16.3937 12.0607 16.6295 11.841C16.8756 11.6213 17.1985 11.5115 17.5983 11.5115C17.9981 11.5115 18.3158 11.6213 18.5516 11.841ZM16.4296 16.0535C16.7269 15.8051 17.1165 15.6809 17.5983 15.6809C18.0698 15.6809 18.4491 15.8051 18.7361 16.0535C19.0334 16.3018 19.1821 16.6362 19.1821 17.0564C19.1821 17.4576 19.0386 17.7872 18.7515 18.0451C18.4747 18.303 18.0903 18.4319 17.5983 18.4319C17.1062 18.4319 16.7115 18.303 16.4142 18.0451C16.1272 17.7872 15.9837 17.4576 15.9837 17.0564C15.9837 16.6266 16.1323 16.2923 16.4296 16.0535ZM7.25001 9.77779V12.0559H8.77232V20.2373H11.5094V9.77779H7.25001Z" fill="#515865"/>
  <rect x="22.5267" y="1.40662" width="2.07143" height="7.25" fill="#515865"/>
  <rect x="27.1875" y="3.99591" width="2.07143" height="7.25" transform="rotate(90 27.1875 3.99591)" fill="#515865"/>
</svg>