<svg xmlns="http://www.w3.org/2000/svg" width="3" height="5" viewBox="0 0 3 5" fill="none">
  <path d="M0.316806 5C0.224127 4.97726 0.141082 4.94038 0.0793448 4.86649C-0.0247179 4.74212 -0.0271994 4.56147 0.0771552 4.43697C0.0972963 4.41284 0.119773 4.3901 0.142687 4.36834C0.782388 3.76052 1.42209 3.1527 2.06223 2.5453C2.07668 2.53157 2.0939 2.52048 2.12046 2.48665C2.10236 2.47709 2.08091 2.47085 2.06675 2.4574C1.42034 1.84445 0.774798 1.23067 0.12853 0.617449C0.0143966 0.509168 -0.029535 0.38397 0.0203801 0.235066C0.0936472 0.017117 0.38803 -0.0717535 0.580976 0.0655045C0.602869 0.0810327 0.623886 0.0980863 0.643151 0.116387C1.38735 0.82292 2.13141 1.52959 2.87517 2.23654C3.0109 2.36562 3.03791 2.52949 2.94654 2.67687C2.92436 2.71278 2.89327 2.74467 2.86189 2.77434C2.14017 3.46077 1.41756 4.14637 0.696277 4.83335C0.616296 4.90946 0.533834 4.9774 0.419555 4.99986C0.385403 5 0.351104 5 0.316806 5Z" fill="#2F7EF3"/>
</svg>