<svg xmlns="http://www.w3.org/2000/svg" width="16" height="16" viewBox="0 0 16 16" fill="none">
  <mask id="mask0_257_327" style="mask-type:alpha" maskUnits="userSpaceOnUse" x="0" y="0" width="16" height="17">
    <rect y="0.000366211" width="16" height="16" fill="#D9D9D9"/>
  </mask>
  <g mask="url(#mask0_257_327)">
    <path d="M3.33333 14.6671C2.96667 14.6671 2.65278 14.5365 2.39167 14.2754C2.13056 14.0143 2 13.7004 2 13.3337V4.00041C2 3.63374 2.13056 3.31985 2.39167 3.05874C2.65278 2.79763 2.96667 2.66707 3.33333 2.66707H4V1.33374H5.33333V2.66707H10.6667V1.33374H12V2.66707H12.6667C13.0333 2.66707 13.3472 2.79763 13.6083 3.05874C13.8694 3.31985 14 3.63374 14 4.00041V13.3337C14 13.7004 13.8694 14.0143 13.6083 14.2754C13.3472 14.5365 13.0333 14.6671 12.6667 14.6671H3.33333ZM3.33333 13.3337H12.6667V6.66707H3.33333V13.3337Z" fill="#686E80"/>
  </g>
</svg>