<svg xmlns="http://www.w3.org/2000/svg" width="16" height="16" viewBox="0 0 16 16" fill="none">
  <mask id="mask0_257_322" style="mask-type:alpha" maskUnits="userSpaceOnUse" x="0" y="0" width="16" height="17">
    <rect y="0.000366211" width="16" height="16" fill="#D9D9D9"/>
  </mask>
  <g mask="url(#mask0_257_322)">
    <path d="M8.66671 7.73374V5.33374C8.66671 5.14485 8.60282 4.98652 8.47504 4.85874C8.34726 4.73096 8.18893 4.66707 8.00004 4.66707C7.81115 4.66707 7.65282 4.73096 7.52504 4.85874C7.39726 4.98652 7.33337 5.14485 7.33337 5.33374V7.98374C7.33337 8.07263 7.35004 8.15874 7.38337 8.24207C7.41671 8.32541 7.46671 8.40041 7.53337 8.46707L9.73337 10.6671C9.8556 10.7893 10.0112 10.8504 10.2 10.8504C10.3889 10.8504 10.5445 10.7893 10.6667 10.6671C10.7889 10.5449 10.85 10.3893 10.85 10.2004C10.85 10.0115 10.7889 9.85596 10.6667 9.73374L8.66671 7.73374ZM8.00004 14.6671C7.07782 14.6671 6.21115 14.4921 5.40004 14.1421C4.58893 13.7921 3.88337 13.3171 3.28337 12.7171C2.68337 12.1171 2.20837 11.4115 1.85837 10.6004C1.50837 9.7893 1.33337 8.92263 1.33337 8.00041C1.33337 7.07818 1.50837 6.21152 1.85837 5.40041C2.20837 4.5893 2.68337 3.88374 3.28337 3.28374C3.88337 2.68374 4.58893 2.20874 5.40004 1.85874C6.21115 1.50874 7.07782 1.33374 8.00004 1.33374C8.92226 1.33374 9.78893 1.50874 10.6 1.85874C11.4112 2.20874 12.1167 2.68374 12.7167 3.28374C13.3167 3.88374 13.7917 4.5893 14.1417 5.40041C14.4917 6.21152 14.6667 7.07818 14.6667 8.00041C14.6667 8.92263 14.4917 9.7893 14.1417 10.6004C13.7917 11.4115 13.3167 12.1171 12.7167 12.7171C12.1167 13.3171 11.4112 13.7921 10.6 14.1421C9.78893 14.4921 8.92226 14.6671 8.00004 14.6671Z" fill="#686E80"/>
  </g>
</svg>