<svg xmlns="http://www.w3.org/2000/svg" width="24" height="24" viewBox="0 0 24 24" fill="none">
  <path d="M10.125 2.25C8.67788 2.25 7.5 3.4275 7.5 4.875C7.5 5.27797 7.59411 5.65846 7.75708 6H5.25C4.21613 6 3.375 6.84113 3.375 7.875V9.375C3.375 10.1421 3.83873 10.8018 4.5 11.0918V16.5C4.5 18.1541 5.84588 19.5 7.5 19.5H16.5C18.1541 19.5 19.5 18.1541 19.5 16.5V11.0918C20.1613 10.8018 20.625 10.1421 20.625 9.375V7.875C20.625 6.84113 19.7839 6 18.75 6H16.2429C16.4059 5.65846 16.5 5.27797 16.5 4.875C16.5 3.4275 15.3221 2.25 13.875 2.25C13.1407 2.25 12.477 2.55387 12 3.04175C11.523 2.55387 10.8593 2.25 10.125 2.25ZM10.125 3.75C10.7453 3.75 11.25 4.25475 11.25 4.875V6H10.125C9.50475 6 9 5.49525 9 4.875C9 4.25475 9.50475 3.75 10.125 3.75ZM13.875 3.75C14.4952 3.75 15 4.25475 15 4.875C15 5.49525 14.4952 6 13.875 6H12.75V4.875C12.75 4.25475 13.2548 3.75 13.875 3.75ZM5.25 7.5H11.25V9.75H5.25C5.043 9.75 4.875 9.58162 4.875 9.375V7.875C4.875 7.66838 5.043 7.5 5.25 7.5ZM12.75 7.5H18.75C18.957 7.5 19.125 7.66838 19.125 7.875V9.375C19.125 9.58162 18.957 9.75 18.75 9.75H12.75V7.5ZM6 11.25H11.25V18H7.5C6.67275 18 6 17.3273 6 16.5V11.25ZM12.75 11.25H18V16.5C18 17.3273 17.3273 18 16.5 18H12.75V11.25Z" fill="white"/>
</svg>