<svg xmlns="http://www.w3.org/2000/svg" width="21" height="20" viewBox="0 0 21 20" fill="none">
  <path d="M8.9375 1.87537C7.73156 1.87537 6.75 2.85662 6.75 4.06287C6.75 4.39868 6.82842 4.71575 6.96423 5.00037H4.875C4.01344 5.00037 3.3125 5.7013 3.3125 6.56287V7.81287C3.3125 8.45212 3.69894 9.00183 4.25 9.24353V13.7504C4.25 15.1288 5.37156 16.2504 6.75 16.2504H14.25C15.6284 16.2504 16.75 15.1288 16.75 13.7504V9.24353C17.3011 9.00183 17.6875 8.45212 17.6875 7.81287V6.56287C17.6875 5.7013 16.9866 5.00037 16.125 5.00037H14.0358C14.1716 4.71575 14.25 4.39868 14.25 4.06287C14.25 2.85662 13.2684 1.87537 12.0625 1.87537C11.4506 1.87537 10.8975 2.12859 10.5 2.53516C10.1025 2.12859 9.54938 1.87537 8.9375 1.87537ZM8.9375 3.12537C9.45437 3.12537 9.875 3.54599 9.875 4.06287V5.00037H8.9375C8.42063 5.00037 8 4.57974 8 4.06287C8 3.54599 8.42063 3.12537 8.9375 3.12537ZM12.0625 3.12537C12.5794 3.12537 13 3.54599 13 4.06287C13 4.57974 12.5794 5.00037 12.0625 5.00037H11.125V4.06287C11.125 3.54599 11.5456 3.12537 12.0625 3.12537ZM4.875 6.25037H9.875V8.12537H4.875C4.7025 8.12537 4.5625 7.98505 4.5625 7.81287V6.56287C4.5625 6.39068 4.7025 6.25037 4.875 6.25037ZM11.125 6.25037H16.125C16.2975 6.25037 16.4375 6.39068 16.4375 6.56287V7.81287C16.4375 7.98505 16.2975 8.12537 16.125 8.12537H11.125V6.25037ZM5.5 9.37537H9.875V15.0004H6.75C6.06063 15.0004 5.5 14.4397 5.5 13.7504V9.37537ZM11.125 9.37537H15.5V13.7504C15.5 14.4397 14.9394 15.0004 14.25 15.0004H11.125V9.37537Z" fill="#2F7EF3"/>
</svg>