<svg width="17" height="17" viewBox="0 0 17 17" fill="none" xmlns="http://www.w3.org/2000/svg">
<path d="M0 8.73242C0 8.57736 0 8.42264 0 8.26758C0.100273 7.77152 0.420684 7.42389 0.765996 7.0799C2.87207 4.98412 4.97283 2.88336 7.06861 0.777617C7.41592 0.428652 7.76488 0.100605 8.26758 0C8.42264 0 8.57736 0 8.73242 0C9.22881 0.0992773 9.57545 0.421016 9.91877 0.765996C12.0219 2.87904 14.1296 4.98744 16.2433 7.08986C16.5939 7.43883 16.913 7.79377 17 8.30078C17 8.43359 17 8.56641 17 8.69922C16.9904 8.72445 16.9764 8.74902 16.9714 8.77492C16.8177 9.54524 16.2088 10.0536 15.4265 10.0629C15.3462 10.0639 15.2661 10.0629 15.1765 10.0629C15.1765 10.1552 15.1765 10.2209 15.1765 10.2867C15.1762 11.9289 15.1808 13.5714 15.1725 15.2137C15.1685 15.9923 14.6386 16.6826 13.8962 16.913C13.7919 16.9452 13.6857 16.9711 13.5804 16.9997C12.5621 16.9997 11.5441 16.9997 10.5257 16.9997C10.2315 16.8901 10.1273 16.6743 10.1293 16.3668C10.1372 15.1011 10.1336 13.8354 10.1323 12.5697C10.1316 12.0049 9.78894 11.6646 9.2215 11.6626C8.75168 11.6609 8.28186 11.6619 7.81203 11.6623C7.19811 11.6629 6.86707 11.9913 6.86674 12.6013C6.86607 13.856 6.86209 15.1107 6.86973 16.3655C6.87172 16.6723 6.76945 16.8898 6.47494 16.9997C5.4566 16.9997 4.43859 16.9997 3.42025 16.9997C3.40631 16.9917 3.39269 16.9781 3.37809 16.9761C2.5852 16.8778 1.80293 16.141 1.81754 15.0643C1.83945 13.4659 1.82318 11.8668 1.82318 10.2681C1.82318 10.204 1.82318 10.1396 1.82318 10.0619C1.7073 10.0619 1.614 10.0659 1.52104 10.0612C0.912754 10.03 0.459863 9.74478 0.174316 9.20922C0.095293 9.0618 0.0571094 8.89213 0 8.73242Z" fill="#2F7EF3"/>
</svg>
