<svg width="148" height="51" viewBox="0 0 148 51" fill="none" xmlns="http://www.w3.org/2000/svg">
<g id="Logo">
<g id="Group">
<g id="Group_2">
<path id="Vector" d="M59.7557 31.0675C59.6741 31.0675 59.6335 31.0165 59.6335 30.9136L59.664 9.79625C59.664 9.69376 59.7146 9.64233 59.8168 9.64233H63.2083C63.31 9.64233 63.361 9.69376 63.361 9.79625L63.3305 27.2812H69.6245C69.7263 27.2812 69.7773 27.3326 69.7773 27.4351V30.9138C69.7773 31.0166 69.7263 31.0677 69.6245 31.0677H59.7557V31.0675Z" fill="#002C4C"/>
<path id="Vector_2" d="M71.3352 30.9139L75.1239 9.76571C75.144 9.68385 75.195 9.64258 75.2766 9.64258H79.7069C79.7881 9.64258 79.839 9.68385 79.8597 9.76571L83.4955 30.9139C83.5157 31.0167 83.4751 31.0678 83.3733 31.0678H79.9819C79.9003 31.0678 79.8492 31.0167 79.8291 30.9139L79.493 28.6667H75.3377L75.0016 30.9139C74.981 31.0167 74.9299 31.0678 74.8489 31.0678H71.4574C71.3756 31.0676 71.3352 31.0165 71.3352 30.9139ZM75.9488 25.3727H78.8819L77.6292 16.7227L77.4459 15.5837L77.3237 16.7227L75.9488 25.3727Z" fill="#002C4C"/>
<path id="Vector_3" d="M91.5916 31.0675C91.51 31.0675 91.4694 31.0165 91.4694 30.9136L91.4999 9.76547C91.4999 9.68361 91.5504 9.64233 91.6527 9.64233H95.0442C95.1459 9.64233 95.1969 9.68361 95.1969 9.76547L95.1664 18.1385H99.7494V9.76547C99.7494 9.68361 99.79 9.64233 99.8716 9.64233H103.263C103.365 9.64233 103.416 9.68361 103.416 9.76547L103.477 30.9136C103.477 31.0165 103.426 31.0675 103.324 31.0675H99.9022C99.7999 31.0675 99.7494 31.0165 99.7494 30.9136V21.8632H95.1664V30.9136C95.1664 31.0165 95.1254 31.0675 95.0442 31.0675H91.5916Z" fill="#002C4C"/>
<path id="Vector_4" d="M112.246 31.3754C111.146 31.3754 110.142 31.093 109.236 30.5288C108.329 29.9647 107.601 29.2157 107.052 28.2818C106.502 27.3481 106.227 26.3168 106.227 25.188L106.257 15.4299C106.257 14.3014 106.527 13.2751 107.067 12.3516C107.606 11.4281 108.335 10.6893 109.251 10.1352C110.168 9.58095 111.166 9.30408 112.246 9.30408C113.346 9.30408 114.343 9.58095 115.24 10.1352C116.136 10.6893 116.854 11.4281 117.394 12.3516C117.934 13.2751 118.204 14.3016 118.204 15.4299L118.234 25.188C118.234 26.3168 117.964 27.3483 117.425 28.2818C116.885 29.2159 116.161 29.9647 115.255 30.5288C114.348 31.0932 113.345 31.3754 112.246 31.3754ZM112.246 27.6506C112.857 27.6506 113.391 27.3995 113.849 26.8964C114.308 26.3938 114.537 25.8244 114.537 25.1878L114.506 15.4297C114.506 14.7525 114.293 14.1783 113.865 13.7059C113.437 13.234 112.897 12.9979 112.246 12.9979C111.614 12.9979 111.074 13.2288 110.626 13.6904C110.178 14.1523 109.954 14.7324 109.954 15.4297V25.1878C109.954 25.865 110.178 26.4453 110.626 26.9271C111.074 27.4097 111.614 27.6506 112.246 27.6506Z" fill="#002C4C"/>
<path id="Vector_5" d="M121.289 31.0675C121.207 31.0675 121.167 31.0165 121.167 30.9136L121.228 9.76547C121.228 9.68361 121.268 9.64233 121.35 9.64233H127.522C128.622 9.64233 129.635 9.91457 130.562 10.458C131.489 11.0021 132.227 11.7306 132.777 12.6436C133.327 13.5571 133.602 14.5883 133.602 15.7374C133.602 16.4968 133.49 17.1794 133.266 17.7844C133.042 18.3899 132.777 18.9031 132.472 19.3235C132.166 19.7444 131.891 20.0575 131.647 20.2623C132.747 21.4937 133.297 22.9405 133.297 24.6027L133.327 30.9133C133.327 31.0161 133.276 31.0672 133.174 31.0672H129.722C129.64 31.0672 129.6 31.0364 129.6 30.9748V24.6027C129.6 23.864 129.34 23.2228 128.821 22.6787C128.301 22.1353 127.664 21.8629 126.911 21.8629H124.894L124.864 30.9133C124.864 31.0161 124.823 31.0672 124.742 31.0672H121.289V31.0675ZM124.894 18.1694H127.522C128.153 18.1694 128.713 17.9338 129.202 17.4614C129.691 16.9897 129.936 16.4148 129.936 15.7377C129.936 15.0811 129.696 14.5169 129.217 14.0445C128.738 13.5728 128.173 13.3367 127.522 13.3367H124.894V18.1694H124.894Z" fill="#002C4C"/>
<path id="Vector_6" d="M135.466 30.9139L139.254 9.76571C139.275 9.68385 139.326 9.64258 139.407 9.64258H143.837C143.919 9.64258 143.97 9.68385 143.99 9.76571L147.626 30.9139C147.646 31.0167 147.606 31.0678 147.504 31.0678H144.112C144.031 31.0678 143.98 31.0167 143.96 30.9139L143.624 28.6667H139.468L139.132 30.9139C139.112 31.0167 139.061 31.0678 138.979 31.0678H135.588C135.506 31.0676 135.466 31.0165 135.466 30.9139ZM140.079 25.3727H143.012L141.76 16.7227L141.576 15.5837L141.454 16.7227L140.079 25.3727Z" fill="#002C4C"/>
</g>
</g>
<g id="Group_3">
<g id="Group_4">
<path id="Vector_7" d="M60.8576 46.6487C60.4561 46.5254 60.1772 46.2915 60.0209 45.9462C59.8643 45.6011 59.786 45.0638 59.786 44.3341V41.5389C59.786 40.7501 60.0086 40.193 60.4539 39.8675C60.8991 39.5421 61.6209 39.3794 62.6191 39.3794C63.0889 39.3794 63.4582 39.4068 63.7274 39.4609C63.9964 39.5151 64.2142 39.6087 64.3806 39.7419C64.5471 39.875 64.7183 40.0697 64.8944 40.326V36.3328H67.0376V46.6855H64.9678V45.8721C64.7917 46.1582 64.6324 46.3579 64.4907 46.4711C64.3487 46.5846 64.1506 46.6707 63.8962 46.7299C63.632 46.7987 63.2404 46.8336 62.7219 46.8336C61.88 46.8336 61.2587 46.7718 60.8576 46.6487ZM64.3219 45.4136C64.5469 45.3644 64.6986 45.2733 64.777 45.14C64.8552 45.0071 64.8944 44.8072 64.8944 44.5412V41.657C64.8944 41.4106 64.8526 41.2207 64.7697 41.0876C64.6864 40.9545 64.5396 40.8584 64.3293 40.7992C64.1188 40.7399 63.803 40.7103 63.3825 40.7103C62.9322 40.7103 62.6092 40.7377 62.4136 40.7917C62.2178 40.846 62.0881 40.9396 62.0246 41.0728C61.9608 41.2058 61.9292 41.4254 61.9292 41.731V44.4669C61.9292 44.7431 61.9609 44.9527 62.0246 45.0954C62.0881 45.2385 62.2129 45.3395 62.3989 45.3986C62.5846 45.458 62.8734 45.4876 63.265 45.4876C63.7443 45.4877 64.0966 45.4631 64.3219 45.4136Z" fill="#002C4C"/>
<path id="Vector_8" d="M68.7107 44.5116V41.938C68.7107 41.041 68.997 40.3902 69.5695 39.9858C70.142 39.5815 71.025 39.3794 72.2191 39.3794C73.3443 39.3794 74.1689 39.5742 74.6926 39.9636C75.2159 40.3533 75.4779 41.0114 75.4779 41.9378V43.683H70.8686V44.3338C70.8686 44.7479 71.0154 45.0437 71.309 45.2211C71.6026 45.3984 72.131 45.4873 72.8944 45.4873C73.599 45.4873 74.3917 45.3836 75.2724 45.1766V46.552C74.4012 46.7393 73.4717 46.8332 72.4834 46.8332C69.9682 46.8335 68.7107 46.0595 68.7107 44.5116ZM73.4377 42.4558V41.4204C73.4377 41.1837 73.3423 41.0062 73.1514 40.8879C72.9606 40.7696 72.6399 40.7105 72.1899 40.7105C71.671 40.7105 71.3238 40.7696 71.1477 40.8879C70.9616 41.0162 70.8688 41.1935 70.8688 41.4204V42.4558H73.4377Z" fill="#002C4C"/>
<path id="Vector_9" d="M77.1808 36.3328H79.324V46.6855H77.1808V36.3328Z" fill="#002C4C"/>
<path id="Vector_10" d="M84.946 49.8359V48.3864C85.8657 48.5145 86.7222 48.5786 87.5149 48.5786C88.239 48.5786 88.7577 48.4603 89.0709 48.2238C89.3839 47.9872 89.5406 47.5927 89.5406 47.0407V45.8871C89.3645 46.1435 89.1931 46.338 89.0269 46.4711C88.8604 46.6042 88.6428 46.6978 88.3736 46.7521C88.1043 46.8061 87.7351 46.8336 87.2653 46.8336C86.5705 46.8336 86.0176 46.7669 85.6066 46.634C85.1955 46.5009 84.8968 46.279 84.7111 45.9684C84.5251 45.6578 84.4322 45.2267 84.4322 44.6743V41.8791C84.4322 41.2187 84.5177 40.7107 84.6891 40.3559C84.8601 40.001 85.1537 39.7496 85.5699 39.6015C85.9858 39.4538 86.5851 39.3796 87.3681 39.3796C87.8768 39.3796 88.2683 39.4094 88.5425 39.4686C88.8067 39.5277 89.0072 39.6163 89.1443 39.7348C89.2812 39.8531 89.4379 40.0551 89.614 40.3411V39.5277H91.6838V47.0704C91.6838 48.0857 91.3389 48.8178 90.6489 49.2667C89.959 49.7152 88.9142 49.9396 87.5149 49.9396C86.3602 49.9393 85.504 49.9047 84.946 49.8359ZM88.9755 45.3989C89.1858 45.3397 89.3326 45.2437 89.4159 45.1105C89.4988 44.9775 89.5406 44.7877 89.5406 44.541V41.6569C89.5406 41.3907 89.5014 41.191 89.4232 41.0581C89.3449 40.925 89.1931 40.8338 88.9681 40.7843C88.7428 40.7351 88.3905 40.7104 87.9112 40.7104C87.5197 40.7104 87.2308 40.7399 87.0451 40.7993C86.8591 40.8584 86.7343 40.9596 86.6708 41.1025C86.607 41.2455 86.5754 41.4552 86.5754 41.731V44.4669C86.5754 44.7727 86.6071 44.9921 86.6708 45.1251C86.7343 45.2582 86.8639 45.3519 87.0598 45.4061C87.2554 45.4604 87.5786 45.4876 88.0287 45.4876C88.4494 45.4878 88.765 45.4582 88.9755 45.3989Z" fill="#002C4C"/>
<path id="Vector_11" d="M94.0838 46.6487C93.7557 46.5254 93.526 46.3035 93.3938 45.9831C93.2617 45.6629 93.1957 45.1823 93.1957 44.5412C93.1957 43.9693 93.2665 43.5205 93.4085 43.1953C93.5504 42.8698 93.7803 42.6359 94.0984 42.4928C94.4163 42.3499 94.8544 42.2783 95.4122 42.2783H97.8197V41.7903C97.8197 41.4849 97.7779 41.2578 97.6949 41.11C97.6116 40.9621 97.46 40.8585 97.2398 40.7994C97.0196 40.74 96.6894 40.7105 96.249 40.7105C95.642 40.7105 94.8104 40.7696 93.7535 40.8879V39.5273C94.5264 39.4289 95.4317 39.3794 96.4692 39.3794C97.3793 39.3794 98.0813 39.4485 98.5757 39.5864C99.0698 39.7247 99.4245 39.9613 99.6399 40.2963C99.8551 40.6317 99.9629 41.1198 99.9629 41.7607V46.6856H97.8637V46.0349C97.6971 46.3211 97.4721 46.523 97.1885 46.6413C96.9044 46.7692 96.3664 46.8335 95.5737 46.8335C94.908 46.8335 94.4115 46.7718 94.0838 46.6487ZM97.3352 45.4433C97.4721 45.4237 97.5676 45.3941 97.6215 45.3544C97.6751 45.315 97.7217 45.2509 97.761 45.1621C97.8 45.0933 97.8197 44.9898 97.8197 44.8516V43.4613H96.3517C96.0189 43.4613 95.784 43.4835 95.6471 43.5279C95.51 43.5724 95.417 43.661 95.3682 43.7941C95.319 43.9272 95.2948 44.1616 95.2948 44.4968C95.2948 44.8222 95.3192 45.049 95.3682 45.1769C95.417 45.3052 95.5124 45.3891 95.6544 45.4285C95.7963 45.4679 96.0484 45.4877 96.4105 45.4877C96.8409 45.4877 97.1492 45.4729 97.3352 45.4433Z" fill="#002C4C"/>
<path id="Vector_12" d="M101.842 39.5275H103.985V40.4001C104.122 39.7197 104.822 39.3794 106.084 39.3794C106.75 39.3794 107.254 39.4659 107.596 39.6384C107.939 39.8109 108.169 40.0797 108.286 40.4444C108.404 40.0697 108.631 39.7987 108.969 39.631C109.306 39.4635 109.818 39.3796 110.503 39.3796C111.119 39.3796 111.594 39.4513 111.927 39.594C112.259 39.7371 112.492 39.9564 112.624 40.2522C112.756 40.5479 112.822 40.9425 112.822 41.4353V46.6856H110.679V41.7311C110.679 41.4155 110.659 41.1911 110.62 41.0582C110.581 40.9251 110.495 40.8339 110.363 40.7844C110.231 40.7352 110.004 40.7105 109.681 40.7105C109.279 40.7105 108.993 40.7352 108.822 40.7844C108.651 40.8339 108.538 40.9249 108.484 41.0582C108.43 41.1911 108.404 41.4155 108.404 41.7311V46.6856H106.26V41.7311C106.26 41.4155 106.241 41.1911 106.202 41.0582C106.163 40.9251 106.077 40.8339 105.945 40.7844C105.813 40.7352 105.585 40.7105 105.262 40.7105C104.861 40.7105 104.575 40.7352 104.403 40.7844C104.232 40.8339 104.119 40.9249 104.066 41.0582C104.012 41.1911 103.985 41.4155 103.985 41.7311V46.6856H101.842V39.5275Z" fill="#002C4C"/>
<path id="Vector_13" d="M116.161 46.5524C115.638 46.3653 115.263 46.0769 115.038 45.6873C114.813 45.2978 114.701 44.7828 114.701 44.1418V36.3329H116.844V40.2374C116.971 39.912 117.206 39.6879 117.549 39.5644C117.891 39.4413 118.424 39.3796 119.149 39.3796C119.765 39.3796 120.262 39.4291 120.639 39.5275C121.015 39.6262 121.301 39.7839 121.497 40.0007C121.683 40.2177 121.81 40.4568 121.879 40.718C121.947 40.9794 121.982 41.3369 121.982 41.7903V44.1418C121.982 45.1081 121.693 45.7983 121.116 46.2124C120.538 46.6265 119.599 46.8335 118.297 46.8335C117.397 46.8335 116.685 46.7396 116.161 46.5524ZM119.281 45.3988C119.496 45.3396 119.643 45.2362 119.721 45.0882C119.799 44.9403 119.839 44.7184 119.839 44.4226V41.7755C119.839 41.4499 119.804 41.2159 119.736 41.073C119.667 40.9301 119.53 40.8339 119.325 40.7844C119.119 40.7352 118.782 40.7104 118.312 40.7104C117.91 40.7104 117.605 40.7452 117.394 40.8142C117.184 40.8831 117.04 40.9915 116.961 41.1395C116.883 41.2874 116.844 41.4996 116.844 41.7755V44.4228C116.844 44.7186 116.881 44.9405 116.954 45.0884C117.027 45.2363 117.169 45.3398 117.38 45.3989C117.59 45.4583 117.906 45.4879 118.327 45.4879C118.747 45.4877 119.065 45.4581 119.281 45.3988Z" fill="#002C4C"/>
<path id="Vector_14" d="M123.714 36.3328H125.857V46.6855H123.714V36.3328Z" fill="#002C4C"/>
<path id="Vector_15" d="M127.853 36.9393H129.996V38.6843H127.853V36.9393ZM127.853 39.5275H129.996V46.6857H127.853V39.5275Z" fill="#002C4C"/>
<path id="Vector_16" d="M131.934 39.5275H134.048V40.4001C134.214 39.7197 134.973 39.3794 136.323 39.3794C137.233 39.3794 137.872 39.5447 138.239 39.875C138.606 40.2054 138.789 40.7252 138.789 41.4352V46.6855H136.646V41.7162C136.646 41.4403 136.619 41.2333 136.565 41.0952C136.512 40.9571 136.404 40.8585 136.243 40.7994C136.081 40.74 135.834 40.7105 135.501 40.7105C135.08 40.7105 134.772 40.7378 134.576 40.7918C134.381 40.8462 134.248 40.9423 134.18 41.0804C134.111 41.2186 134.077 41.4303 134.077 41.7162V46.6855H131.934V39.5275Z" fill="#002C4C"/>
<path id="Vector_17" d="M140.976 49.8359V48.3864C141.896 48.5145 142.753 48.5786 143.545 48.5786C144.269 48.5786 144.788 48.4603 145.101 48.2238C145.414 47.9872 145.571 47.5927 145.571 47.0407V45.8871C145.395 46.1435 145.224 46.338 145.057 46.4711C144.891 46.6042 144.673 46.6978 144.404 46.7521C144.135 46.8061 143.766 46.8336 143.296 46.8336C142.601 46.8336 142.048 46.7669 141.637 46.634C141.226 46.5009 140.927 46.279 140.742 45.9684C140.556 45.6578 140.463 45.2267 140.463 44.6743V41.8791C140.463 41.2187 140.548 40.7107 140.72 40.3559C140.891 40.001 141.184 39.7496 141.6 39.6015C142.016 39.4538 142.616 39.3796 143.399 39.3796C143.907 39.3796 144.299 39.4094 144.573 39.4686C144.837 39.5277 145.038 39.6163 145.175 39.7348C145.312 39.8531 145.468 40.0551 145.644 40.3411V39.5277H147.714V47.0704C147.714 48.0857 147.369 48.8178 146.679 49.2667C145.989 49.7152 144.945 49.9396 143.545 49.9396C142.39 49.9393 141.534 49.9047 140.976 49.8359ZM145.006 45.3989C145.216 45.3397 145.363 45.2437 145.446 45.1105C145.529 44.9775 145.571 44.7877 145.571 44.541V41.6569C145.571 41.3907 145.532 41.191 145.454 41.0581C145.375 40.925 145.224 40.8338 144.999 40.7843C144.773 40.7351 144.421 40.7104 143.942 40.7104C143.55 40.7104 143.261 40.7399 143.076 40.7993C142.89 40.8584 142.765 40.9596 142.701 41.1025C142.637 41.2455 142.606 41.4552 142.606 41.731V44.4669C142.606 44.7727 142.638 44.9921 142.701 45.1251C142.765 45.2582 142.894 45.3519 143.09 45.4061C143.286 45.4604 143.609 45.4876 144.059 45.4876C144.48 45.4878 144.795 45.4582 145.006 45.3989Z" fill="#002C4C"/>
</g>
</g>
<g id="Group_5">
<path id="Vector_18" d="M25.5043 49.5297C38.4854 49.5297 49.0086 38.9274 49.0086 25.8489C49.0086 12.7703 38.4854 2.16809 25.5043 2.16809C12.5232 2.16809 2 12.7703 2 25.8489C2 38.9274 12.5232 49.5297 25.5043 49.5297Z" fill="#002C4C"/>
<path id="Vector_19" d="M25.5022 16.1413L15.8663 25.8495L25.5022 35.5577L35.138 25.8495L25.5022 16.1413Z" fill="#F7F8FD"/>
<path id="Vector_20" d="M13.8268 5.19186L17.1387 11.1072C17.1387 11.1072 21.5385 8.82753 24.615 8.75186L24.1734 2.0114C24.1732 2.0114 18.6096 1.63616 13.8268 5.19186Z" fill="#F01717"/>
<path id="Vector_21" d="M34.889 4.3772L31.9939 10.5104C31.9939 10.5104 36.3766 12.8233 38.2086 15.3146L43.4256 11.0712C43.4254 11.0712 40.5278 6.2713 34.889 4.3772Z" fill="#EDB315"/>
<path id="Vector_22" d="M48.1555 19.4093L41.5675 20.848C41.5675 20.848 42.4283 25.7566 41.5904 28.74L48.1121 30.3079C48.1121 30.3079 50.1128 25.0638 48.1555 19.4093Z" fill="#F01717"/>
<path id="Vector_23" d="M44.8086 39.3684L39.3115 35.4375C39.3115 35.4375 36.2943 39.3881 33.5428 40.7766L36.7917 46.6857C36.7917 46.6855 41.9841 44.6377 44.8086 39.3684Z" fill="#F01717"/>
<path id="Vector_24" d="M26.2176 49.8563L26.1077 43.0656C26.1077 43.0656 21.1614 42.9545 18.4218 41.5422L15.6184 47.6786C15.6182 47.6786 20.3305 50.6824 26.2176 49.8563Z" fill="#EDB315"/>
<path id="Vector_25" d="M8.26075 41.4459L13.12 36.7387C13.12 36.7387 9.83112 33.015 8.99081 30.0321L2.62233 32.1448C2.62233 32.145 3.65005 37.6668 8.26075 41.4459Z" fill="#F01717"/>
<path id="Vector_26" d="M2.62233 22.279L9.21032 23.7179C9.21032 23.7179 10.4442 18.8908 12.4331 16.5248L7.14103 12.3768C7.14103 12.3768 3.16479 16.3155 2.62233 22.279Z" fill="#F01717"/>
<path id="Vector (Stroke)" fill-rule="evenodd" clip-rule="evenodd" d="M25.5043 3.50117C13.2542 3.50117 3.32332 13.5064 3.32332 25.8489C3.32332 38.1913 13.2542 48.1965 25.5043 48.1965C37.7543 48.1965 47.6852 38.1913 47.6852 25.8489C47.6852 13.5064 37.7543 3.50117 25.5043 3.50117ZM0.676666 25.8489C0.676666 12.0342 11.7922 0.834961 25.5043 0.834961C39.2164 0.834961 50.3319 12.0342 50.3319 25.8489C50.3319 39.6635 39.2164 50.8627 25.5043 50.8627C11.7922 50.8627 0.676666 39.6635 0.676666 25.8489Z" fill="white"/>
<path id="Vector (Stroke)_2" fill-rule="evenodd" clip-rule="evenodd" d="M25.5043 10.2905C16.9759 10.2905 10.062 17.256 10.062 25.8489C10.062 34.4417 16.9759 41.4072 25.5043 41.4072C34.0327 41.4072 40.9466 34.4417 40.9466 25.8489C40.9466 17.256 34.0327 10.2905 25.5043 10.2905ZM7.41537 25.8489C7.41537 15.7838 15.5139 7.62427 25.5043 7.62427C35.4947 7.62427 43.5932 15.7838 43.5932 25.8489C43.5932 35.9139 35.4947 44.0734 25.5043 44.0734C15.5139 44.0734 7.41537 35.9139 7.41537 25.8489Z" fill="white"/>
</g>
</g>
</svg>