<svg width="99" height="34" viewBox="0 0 99 34" fill="none" xmlns="http://www.w3.org/2000/svg">
<path d="M39.5038 20.3783C39.4495 20.3783 39.4224 20.3443 39.4224 20.2757L39.4427 6.19746C39.4427 6.12913 39.4764 6.09485 39.5446 6.09485H41.8056C41.8734 6.09485 41.9074 6.12913 41.9074 6.19746L41.887 17.8541H46.0831C46.1509 17.8541 46.1849 17.8884 46.1849 17.9567V20.2758C46.1849 20.3444 46.1509 20.3784 46.0831 20.3784H39.5038V20.3783Z" fill="#002C4C"/>
<path d="M47.2235 20.2758L49.7493 6.17706C49.7627 6.12249 49.7967 6.09497 49.8511 6.09497H52.8046C52.8588 6.09497 52.8927 6.12249 52.9065 6.17706L55.3304 20.2758C55.3438 20.3444 55.3168 20.3784 55.2489 20.3784H52.988C52.9336 20.3784 52.8995 20.3444 52.8861 20.2758L52.6621 18.7777H49.8919L49.6678 20.2758C49.654 20.3444 49.62 20.3784 49.566 20.3784H47.305C47.2505 20.3783 47.2235 20.3443 47.2235 20.2758ZM50.2993 16.5817H52.2547L51.4195 10.815L51.2973 10.0557L51.2159 10.815L50.2993 16.5817Z" fill="#002C4C"/>
<path d="M60.7277 20.3783C60.6733 20.3783 60.6462 20.3443 60.6462 20.2757L60.6666 6.17694C60.6666 6.12236 60.7003 6.09485 60.7685 6.09485H63.0294C63.0972 6.09485 63.1313 6.12236 63.1313 6.17694L63.1109 11.7589H66.1663V6.17694C66.1663 6.12236 66.1933 6.09485 66.2477 6.09485H68.5087C68.5765 6.09485 68.6106 6.12236 68.6106 6.17694L68.6513 20.2757C68.6513 20.3443 68.6173 20.3783 68.5495 20.3783H66.2681C66.1999 20.3783 66.1663 20.3443 66.1663 20.2757V14.2421H63.1109V20.2757C63.1109 20.3443 63.0836 20.3783 63.0294 20.3783H60.7277Z" fill="#002C4C"/>
<path d="M74.4971 20.5836C73.7638 20.5836 73.0948 20.3953 72.4908 20.0192C71.8863 19.6431 71.401 19.1438 71.0345 18.5212C70.6678 17.8988 70.4845 17.2112 70.4845 16.4586L70.5049 9.95328C70.5049 9.20095 70.6847 8.51673 71.0447 7.90107C71.4043 7.28541 71.89 6.79288 72.501 6.42348C73.1121 6.05397 73.7772 5.86938 74.4972 5.86938C75.2305 5.86938 75.8957 6.05397 76.4934 6.42348C77.0908 6.79288 77.5695 7.28541 77.9295 7.90107C78.2892 8.51673 78.4693 9.20107 78.4693 9.95328L78.4897 16.4586C78.4897 17.2112 78.3095 17.8989 77.9499 18.5212C77.5899 19.1439 77.1078 19.6431 76.5037 20.0192C75.899 20.3954 75.2304 20.5836 74.4971 20.5836ZM74.4971 18.1004C74.9045 18.1004 75.2609 17.933 75.5664 17.5976C75.872 17.2626 76.0248 16.883 76.0248 16.4585L76.0044 9.95316C76.0044 9.50167 75.8618 9.11886 75.5767 8.80392C75.2915 8.48933 74.9316 8.33192 74.4971 8.33192C74.0761 8.33192 73.7161 8.48589 73.4175 8.7936C73.1187 9.10155 72.9694 9.48826 72.9694 9.95316V16.4585C72.9694 16.91 73.1187 17.2968 73.4175 17.6181C73.716 17.9398 74.076 18.1004 74.4971 18.1004Z" fill="#002C4C"/>
<path d="M80.5259 20.3783C80.4715 20.3783 80.4445 20.3443 80.4445 20.2757L80.4852 6.17694C80.4852 6.12236 80.5123 6.09485 80.5667 6.09485H84.6812C85.4145 6.09485 86.0899 6.27634 86.708 6.63863C87.3258 7.00138 87.8181 7.48703 88.1848 8.09569C88.5515 8.70471 88.7348 9.39214 88.7348 10.1582C88.7348 10.6645 88.66 11.1195 88.5107 11.5229C88.3612 11.9266 88.1848 12.2687 87.9811 12.549C87.7774 12.8295 87.5941 13.0383 87.4312 13.1748C88.1645 13.9957 88.5311 14.9603 88.5311 16.0685L88.5515 20.2755C88.5515 20.344 88.5174 20.3781 88.4496 20.3781H86.1479C86.0935 20.3781 86.0664 20.3576 86.0664 20.3165V16.0685C86.0664 15.5759 85.8934 15.1485 85.5471 14.7858C85.2008 14.4235 84.7762 14.2419 84.274 14.2419H82.9296L82.9092 20.2755C82.9092 20.344 82.8819 20.3781 82.8278 20.3781H80.5259V20.3783ZM82.9295 11.7796H84.6812C85.1019 11.7796 85.4756 11.6225 85.8015 11.3076C86.1274 10.9931 86.2904 10.6098 86.2904 10.1584C86.2904 9.72072 86.1306 9.34456 85.8116 9.02962C85.4923 8.71514 85.1156 8.55773 84.6811 8.55773H82.9294V11.7796H82.9295Z" fill="#002C4C"/>
<path d="M89.9773 20.2758L92.5031 6.17706C92.5165 6.12249 92.5505 6.09497 92.6049 6.09497H95.5584C95.6126 6.09497 95.6465 6.12249 95.6603 6.17706L98.0842 20.2758C98.0976 20.3444 98.0705 20.3784 98.0027 20.3784H95.7417C95.6874 20.3784 95.6533 20.3444 95.6399 20.2758L95.4158 18.7777H92.6456L92.4216 20.2758C92.4078 20.3444 92.3738 20.3784 92.3197 20.3784H90.0588C90.0043 20.3783 89.9773 20.3443 89.9773 20.2758ZM93.0529 16.5817H95.0083L94.1732 10.815L94.051 10.0557L93.9695 10.815L93.0529 16.5817Z" fill="#002C4C"/>
<path d="M40.2384 30.7658C39.9708 30.6836 39.7849 30.5277 39.6806 30.2975C39.5763 30.0674 39.524 29.7092 39.524 29.2228V27.3593C39.524 26.8334 39.6724 26.4621 39.9693 26.245C40.2661 26.0281 40.7473 25.9197 41.4128 25.9197C41.726 25.9197 41.9722 25.9379 42.1517 25.974C42.331 26.0101 42.4762 26.0725 42.5871 26.1613C42.6981 26.2501 42.8122 26.3799 42.9297 26.5507V23.8885H44.3585V30.7904H42.9786V30.2481C42.8612 30.4389 42.755 30.572 42.6605 30.6474C42.5659 30.7231 42.4338 30.7805 42.2642 30.82C42.088 30.8658 41.827 30.8891 41.4813 30.8891C40.9201 30.8891 40.5059 30.8479 40.2384 30.7658ZM42.548 29.9424C42.698 29.9097 42.7991 29.8489 42.8514 29.76C42.9035 29.6714 42.9297 29.5382 42.9297 29.3608V27.4381C42.9297 27.2738 42.9018 27.1472 42.8465 27.0585C42.791 26.9697 42.6931 26.9056 42.5529 26.8662C42.4126 26.8266 42.2021 26.8069 41.9217 26.8069C41.6215 26.8069 41.4062 26.8252 41.2758 26.8611C41.1453 26.8974 41.0588 26.9597 41.0165 27.0486C40.9739 27.1372 40.9528 27.2836 40.9528 27.4874V29.3113C40.9528 29.4954 40.974 29.6352 41.0165 29.7303C41.0588 29.8257 41.142 29.893 41.266 29.9325C41.3898 29.972 41.5823 29.9917 41.8434 29.9917C42.1629 29.9919 42.3978 29.9755 42.548 29.9424Z" fill="#002C4C"/>
<path d="M45.4739 29.3411V27.6254C45.4739 27.0274 45.6647 26.5936 46.0464 26.3239C46.428 26.0544 47.0167 25.9197 47.8128 25.9197C48.5629 25.9197 49.1127 26.0496 49.4618 26.3091C49.8107 26.5689 49.9853 27.0077 49.9853 27.6253V28.7888H46.9125V29.2226C46.9125 29.4987 47.0103 29.6958 47.2061 29.8142C47.4018 29.9324 47.7541 29.9916 48.263 29.9916C48.7327 29.9916 49.2612 29.9225 49.8483 29.7845V30.7014C49.2675 30.8263 48.6478 30.8889 47.989 30.8889C46.3122 30.8891 45.4739 30.3731 45.4739 29.3411ZM48.6252 27.9706V27.2803C48.6252 27.1226 48.5616 27.0042 48.4343 26.9254C48.3071 26.8465 48.0933 26.8071 47.7933 26.8071C47.4474 26.8071 47.2159 26.8465 47.0985 26.9254C46.9745 27.0109 46.9126 27.1291 46.9126 27.2803V27.9706H48.6252Z" fill="#002C4C"/>
<path d="M51.1206 23.8885H52.5494V30.7904H51.1206V23.8885Z" fill="#002C4C"/>
<path d="M56.2974 32.8906V31.9243C56.9105 32.0097 57.4815 32.0525 58.01 32.0525C58.4927 32.0525 58.8385 31.9736 59.0473 31.8159C59.256 31.6582 59.3605 31.3952 59.3605 31.0272V30.2581C59.243 30.429 59.1288 30.5587 59.0179 30.6474C58.907 30.7362 58.7619 30.7985 58.5825 30.8348C58.4029 30.8708 58.1567 30.8891 57.8436 30.8891C57.3803 30.8891 57.0118 30.8446 56.7377 30.756C56.4637 30.6673 56.2646 30.5194 56.1408 30.3123C56.0167 30.1053 55.9548 29.8178 55.9548 29.4496V27.5861C55.9548 27.1458 56.0118 26.8072 56.1261 26.5707C56.2401 26.334 56.4358 26.1664 56.7133 26.0677C56.9906 25.9692 57.3901 25.9198 57.9121 25.9198C58.2512 25.9198 58.5122 25.9396 58.695 25.9791C58.8712 26.0185 59.0049 26.0776 59.0962 26.1565C59.1875 26.2354 59.292 26.3701 59.4094 26.5608V26.0185H60.7893V31.047C60.7893 31.7239 60.5593 32.2119 60.0993 32.5112C59.6394 32.8102 58.9428 32.9598 58.01 32.9598C57.2401 32.9596 56.6693 32.9365 56.2974 32.8906ZM58.9837 29.9326C59.1239 29.8932 59.2217 29.8292 59.2773 29.7403C59.3326 29.6517 59.3605 29.5251 59.3605 29.3607V27.438C59.3605 27.2605 59.3343 27.1274 59.2822 27.0388C59.2299 26.95 59.1288 26.8893 58.9788 26.8563C58.8286 26.8235 58.5937 26.807 58.2742 26.807C58.0131 26.807 57.8206 26.8267 57.6968 26.8662C57.5728 26.9057 57.4896 26.9731 57.4472 27.0683C57.4047 27.1637 57.3836 27.3035 57.3836 27.4874V29.3113C57.3836 29.5152 57.4048 29.6615 57.4472 29.7501C57.4896 29.8388 57.5759 29.9013 57.7066 29.9374C57.837 29.9737 58.0524 29.9918 58.3525 29.9918C58.633 29.9919 58.8434 29.9722 58.9837 29.9326Z" fill="#002C4C"/>
<path d="M62.3892 30.7659C62.1705 30.6837 62.0173 30.5358 61.9292 30.3222C61.8412 30.1087 61.7971 29.7883 61.7971 29.3608C61.7971 28.9796 61.8443 28.6804 61.939 28.4636C62.0336 28.2466 62.1869 28.0907 62.399 27.9953C62.6109 27.9 62.903 27.8523 63.2748 27.8523H64.8798V27.5269C64.8798 27.3233 64.8519 27.172 64.7966 27.0734C64.7411 26.9748 64.64 26.9058 64.4932 26.8663C64.3464 26.8268 64.1262 26.8071 63.8327 26.8071C63.428 26.8071 62.8736 26.8465 62.169 26.9254V26.0183C62.6842 25.9527 63.2878 25.9197 63.9795 25.9197C64.5862 25.9197 65.0542 25.9658 65.3838 26.0577C65.7132 26.1499 65.9497 26.3076 66.0933 26.531C66.2368 26.7545 66.3086 27.0799 66.3086 27.5072V30.7905H64.9091V30.3567C64.7981 30.5475 64.6481 30.6821 64.459 30.7609C64.2696 30.8462 63.911 30.8891 63.3825 30.8891C62.9387 30.8891 62.6077 30.848 62.3892 30.7659ZM64.5568 29.9623C64.6481 29.9492 64.7117 29.9295 64.7477 29.903C64.7834 29.8768 64.8145 29.834 64.8406 29.7748C64.8667 29.729 64.8798 29.66 64.8798 29.5678V28.641H63.9012C63.6793 28.641 63.5227 28.6558 63.4314 28.6853C63.34 28.715 63.278 28.7741 63.2455 28.8628C63.2127 28.9516 63.1966 29.1078 63.1966 29.3313C63.1966 29.5482 63.2128 29.6994 63.2455 29.7847C63.278 29.8702 63.3416 29.9262 63.4363 29.9524C63.5309 29.9787 63.699 29.9919 63.9403 29.9919C64.2273 29.9919 64.4328 29.982 64.5568 29.9623Z" fill="#002C4C"/>
<path d="M67.5613 26.0184H68.9901V26.6001C69.0813 26.1466 69.5479 25.9197 70.3895 25.9197C70.8331 25.9197 71.1691 25.9773 71.3975 26.0923C71.6258 26.2073 71.7792 26.3865 71.8575 26.6297C71.9357 26.3799 72.0874 26.1992 72.3125 26.0874C72.5376 25.9757 72.8784 25.9198 73.3352 25.9198C73.7462 25.9198 74.0626 25.9676 74.2845 26.0628C74.5062 26.1581 74.6612 26.3043 74.7493 26.5015C74.8374 26.6987 74.8814 26.9617 74.8814 27.2903V30.7905H73.4526V27.4875C73.4526 27.2771 73.4395 27.1275 73.4135 27.0389C73.3873 26.9501 73.3303 26.8894 73.2422 26.8564C73.1541 26.8236 73.0025 26.8071 72.7872 26.8071C72.5195 26.8071 72.3287 26.8236 72.2147 26.8564C72.1004 26.8894 72.0253 26.95 71.9896 27.0389C71.9536 27.1275 71.9357 27.2771 71.9357 27.4875V30.7905H70.5069V27.4875C70.5069 27.2771 70.4937 27.1275 70.4678 27.0389C70.4417 26.9501 70.3846 26.8894 70.2965 26.8564C70.2085 26.8236 70.0568 26.8071 69.8415 26.8071C69.5738 26.8071 69.3831 26.8236 69.269 26.8564C69.1547 26.8894 69.0796 26.95 69.0439 27.0389C69.0079 27.1275 68.9901 27.2771 68.9901 27.4875V30.7905H67.5613V26.0184Z" fill="#002C4C"/>
<path d="M77.1076 30.7017C76.7585 30.5769 76.509 30.3846 76.359 30.125C76.2089 29.8653 76.1339 29.5219 76.1339 29.0946V23.8887H77.5627V26.4917C77.6474 26.2747 77.8041 26.1253 78.0324 26.043C78.2607 25.9609 78.6162 25.9198 79.0991 25.9198C79.5102 25.9198 79.8412 25.9528 80.0925 26.0184C80.3436 26.0842 80.5343 26.1893 80.665 26.3339C80.7889 26.4786 80.8736 26.6379 80.9194 26.8121C80.9649 26.9864 80.9879 27.2247 80.9879 27.5269V29.0946C80.9879 29.7388 80.7954 30.1989 80.4105 30.475C80.0255 30.7511 79.3991 30.8891 78.5315 30.8891C77.9312 30.8891 77.4565 30.8265 77.1076 30.7017ZM79.1872 29.9326C79.3307 29.8932 79.4286 29.8242 79.4808 29.7255C79.5329 29.6269 79.5591 29.479 79.5591 29.2818V27.5171C79.5591 27.3 79.5361 27.144 79.4906 27.0487C79.4448 26.9535 79.3536 26.8894 79.2166 26.8563C79.0796 26.8236 78.8545 26.807 78.5413 26.807C78.2737 26.807 78.0699 26.8302 77.9297 26.8762C77.7893 26.9222 77.6931 26.9944 77.641 27.0931C77.5888 27.1917 77.5627 27.3332 77.5627 27.5171V29.282C77.5627 29.4792 77.5872 29.6271 77.6361 29.7257C77.685 29.8243 77.7795 29.8933 77.9199 29.9327C78.0601 29.9723 78.2705 29.992 78.5511 29.992C78.8315 29.9919 79.0436 29.9721 79.1872 29.9326Z" fill="#002C4C"/>
<path d="M82.1426 23.8885H83.5714V30.7904H82.1426V23.8885Z" fill="#002C4C"/>
<path d="M84.9022 24.293H86.331V25.4563H84.9022V24.293ZM84.9022 26.0184H86.331V30.7906H84.9022V26.0184Z" fill="#002C4C"/>
<path d="M87.6228 26.0184H89.032V26.6001C89.1429 26.1466 89.6486 25.9197 90.5489 25.9197C91.1556 25.9197 91.5814 26.0299 91.826 26.2501C92.0707 26.4703 92.193 26.8169 92.193 27.2902V30.7904H90.7642V27.4775C90.7642 27.2936 90.7462 27.1556 90.7104 27.0635C90.6744 26.9715 90.6027 26.9058 90.4951 26.8663C90.3874 26.8268 90.2225 26.8071 90.0009 26.8071C89.7203 26.8071 89.5149 26.8253 89.3843 26.8613C89.2538 26.8975 89.1657 26.9616 89.1201 27.0537C89.0744 27.1458 89.0516 27.287 89.0516 27.4775V30.7904H87.6228V26.0184Z" fill="#002C4C"/>
<path d="M93.651 32.8906V31.9243C94.2641 32.0097 94.8351 32.0525 95.3636 32.0525C95.8463 32.0525 96.1921 31.9736 96.4009 31.8159C96.6096 31.6582 96.7141 31.3952 96.7141 31.0272V30.2581C96.5967 30.429 96.4824 30.5587 96.3716 30.6474C96.2606 30.7362 96.1155 30.7985 95.9361 30.8348C95.7565 30.8708 95.5104 30.8891 95.1972 30.8891C94.734 30.8891 94.3654 30.8446 94.0914 30.756C93.8173 30.6673 93.6182 30.5194 93.4944 30.3123C93.3704 30.1053 93.3085 29.8178 93.3085 29.4496V27.5861C93.3085 27.1458 93.3655 26.8072 93.4797 26.5707C93.5937 26.334 93.7895 26.1664 94.0669 26.0677C94.3442 25.9692 94.7437 25.9198 95.2657 25.9198C95.6048 25.9198 95.8659 25.9396 96.0486 25.9791C96.2248 26.0185 96.3585 26.0776 96.4499 26.1565C96.5411 26.2354 96.6456 26.3701 96.763 26.5608V26.0185H98.1429V31.047C98.1429 31.7239 97.9129 32.2119 97.4529 32.5112C96.993 32.8102 96.2965 32.9598 95.3636 32.9598C94.5937 32.9596 94.0229 32.9365 93.651 32.8906ZM96.3373 29.9326C96.4775 29.8932 96.5754 29.8292 96.6309 29.7403C96.6862 29.6517 96.7141 29.5251 96.7141 29.3607V27.438C96.7141 27.2605 96.6879 27.1274 96.6358 27.0388C96.5836 26.95 96.4824 26.8893 96.3324 26.8563C96.1822 26.8235 95.9473 26.807 95.6278 26.807C95.3668 26.807 95.1742 26.8267 95.0504 26.8662C94.9264 26.9057 94.8432 26.9731 94.8009 27.0683C94.7583 27.1637 94.7373 27.3035 94.7373 27.4874V29.3113C94.7373 29.5152 94.7584 29.6615 94.8009 29.7501C94.8432 29.8388 94.9296 29.9013 95.0602 29.9374C95.1906 29.9737 95.406 29.9918 95.7061 29.9918C95.9866 29.9919 96.197 29.9722 96.3373 29.9326Z" fill="#002C4C"/>
<path d="M16.6695 32.6864C25.3236 32.6864 32.3391 25.6183 32.3391 16.8993C32.3391 8.18023 25.3236 1.11206 16.6695 1.11206C8.01549 1.11206 1 8.18023 1 16.8993C1 25.6183 8.01549 32.6864 16.6695 32.6864Z" fill="#002C4C"/>
<path d="M16.6682 10.4274L10.2443 16.8995L16.6682 23.3717L23.0921 16.8995L16.6682 10.4274Z" fill="#F7F8FD"/>
<path d="M8.88452 3.12791L11.0925 7.07146C11.0925 7.07146 14.0256 5.55169 16.0766 5.50124L15.7823 1.0076C15.7821 1.0076 12.073 0.757438 8.88452 3.12791Z" fill="#F01717"/>
<path d="M22.926 2.58472L20.996 6.67354C20.996 6.67354 23.9177 8.21544 25.1391 9.87635L28.6171 7.0474C28.617 7.0474 26.6852 3.84745 22.926 2.58472Z" fill="#EDB315"/>
<path d="M31.7703 12.6062L27.3783 13.5654C27.3783 13.5654 27.9522 16.8378 27.3935 18.8267L31.7414 19.8719C31.7414 19.8719 33.0752 16.3758 31.7703 12.6062Z" fill="#F01717"/>
<path d="M29.5391 25.9123L25.8743 23.2916C25.8743 23.2916 23.8629 25.9253 22.0286 26.851L24.1945 30.7904C24.1945 30.7903 27.6561 29.4251 29.5391 25.9123Z" fill="#F01717"/>
<path d="M17.1451 32.9041L17.0718 28.377C17.0718 28.377 13.7743 28.3029 11.9479 27.3615L10.079 31.4523C10.0789 31.4523 13.2204 33.4549 17.1451 32.9041Z" fill="#EDB315"/>
<path d="M5.17386 27.2972L8.41335 24.159C8.41335 24.159 6.22078 21.6766 5.66057 19.688L1.41492 21.0964C1.41492 21.0966 2.10007 24.7778 5.17386 27.2972Z" fill="#F01717"/>
<path d="M1.41492 14.5193L5.80691 15.4786C5.80691 15.4786 6.62953 12.2605 7.95545 10.6832L4.42738 7.91785C4.42738 7.91785 1.77655 10.5436 1.41492 14.5193Z" fill="#F01717"/>
<path fill-rule="evenodd" clip-rule="evenodd" d="M16.6695 2.00074C8.50284 2.00074 1.88223 8.6709 1.88223 16.8992C1.88223 25.1275 8.50284 31.7976 16.6695 31.7976C24.8363 31.7976 31.4568 25.1275 31.4568 16.8992C31.4568 8.6709 24.8363 2.00074 16.6695 2.00074ZM0.117798 16.8992C0.117798 7.68943 7.52817 0.223267 16.6695 0.223267C25.8109 0.223267 33.2213 7.68943 33.2213 16.8992C33.2213 26.109 25.8109 33.5751 16.6695 33.5751C7.52817 33.5751 0.117798 26.109 0.117798 16.8992Z" fill="white"/>
<path fill-rule="evenodd" clip-rule="evenodd" d="M16.6695 6.52698C10.9839 6.52698 6.37466 11.1707 6.37466 16.8992C6.37466 22.6278 10.9839 27.2715 16.6695 27.2715C22.3551 27.2715 26.9643 22.6278 26.9643 16.8992C26.9643 11.1707 22.3551 6.52698 16.6695 6.52698ZM4.61023 16.8992C4.61023 10.1892 10.0093 4.74951 16.6695 4.74951C23.3298 4.74951 28.7288 10.1892 28.7288 16.8992C28.7288 23.6092 23.3298 29.049 16.6695 29.049C10.0093 29.049 4.61023 23.6092 4.61023 16.8992Z" fill="white"/>
</svg>
