<svg xmlns="http://www.w3.org/2000/svg" width="24" height="24" viewBox="0 0 24 24" fill="none">
  <path d="M12.35 4C7.73852 4 4 7.73852 4 12.35C4 16.9615 7.73852 20.7 12.35 20.7C16.9615 20.7 20.7 16.9615 20.7 12.35C20.7 7.73852 16.9615 4 12.35 4ZM12.35 5.51818C16.1231 5.51818 19.1818 8.57694 19.1818 12.35C19.1818 16.1231 16.1231 19.1818 12.35 19.1818C8.57694 19.1818 5.51818 16.1231 5.51818 12.35C5.51818 8.57694 8.57694 5.51818 12.35 5.51818ZM12.35 8.93409C11.9306 8.93409 11.5909 9.27416 11.5909 9.69318V11.5909H9.69318C9.27416 11.5909 8.93409 11.9306 8.93409 12.35C8.93409 12.7694 9.27416 13.1091 9.69318 13.1091H11.5909V15.0068C11.5909 15.4258 11.9306 15.7659 12.35 15.7659C12.7694 15.7659 13.1091 15.4258 13.1091 15.0068V13.1091H15.0068C15.4258 13.1091 15.7659 12.7694 15.7659 12.35C15.7659 11.9306 15.4258 11.5909 15.0068 11.5909H13.1091V9.69318C13.1091 9.27416 12.7694 8.93409 12.35 8.93409Z" fill="#2F7EF3"/>
</svg>