<svg xmlns="http://www.w3.org/2000/svg" width="20" height="20" viewBox="0 0 20 20" fill="none">
  <path d="M10.5511 2.34151C10.4471 2.13229 10.2336 2 10 2C9.76637 2 9.5529 2.13229 9.44892 2.34151L7.31063 6.64404L2.52751 7.33423C2.29518 7.36776 2.10216 7.53053 2.0299 7.75387C1.95764 7.97721 2.01873 8.22221 2.1874 8.38547L5.64592 11.7333L4.82966 16.4593C4.78983 16.69 4.88428 16.9232 5.07335 17.0612C5.26242 17.1991 5.51339 17.2179 5.72087 17.1096L10 14.8755L14.2791 17.1096C14.4866 17.2179 14.7376 17.1991 14.9267 17.0612C15.1157 16.9232 15.2102 16.69 15.1703 16.4593L14.3541 11.7333L17.8126 8.38547C17.9813 8.22221 18.0424 7.97721 17.9701 7.75387C17.8978 7.53053 17.7048 7.36776 17.4725 7.33423L12.6894 6.64404L10.5511 2.34151Z" fill="#FFD058"/>
</svg>