<svg width="16" height="16" viewBox="0 0 16 16" fill="none" xmlns="http://www.w3.org/2000/svg">
<g clip-path="url(#clip0_1_4412)">
<g clip-path="url(#clip1_1_4412)">
<rect width="16" height="16" rx="8" fill="#10B700" fill-opacity="0.1"/>
</g>
<path d="M11.6036 4.85025L11.6035 4.85025C11.4637 4.85462 11.3326 4.91586 11.2373 5.0185L6.66907 9.81754L4.76466 7.81691C4.7164 7.76442 4.65831 7.72206 4.59354 7.69265C4.52824 7.663 4.45767 7.64721 4.38602 7.64645C4.31437 7.64568 4.24348 7.65996 4.17758 7.68822C4.1117 7.71648 4.05236 7.75804 4.00281 7.81009C3.95329 7.86212 3.91451 7.9236 3.88842 7.99075C3.86233 8.05789 3.84933 8.12959 3.85003 8.20171C3.85073 8.27383 3.86511 8.34526 3.89251 8.41187C3.91971 8.47797 3.95929 8.53824 4.00931 8.589L6.29139 10.9864L6.29141 10.9864C6.39027 11.0902 6.52594 11.15 6.66907 11.15C6.81219 11.15 6.94787 11.0902 7.04672 10.9864L7.04674 10.9864L11.9927 5.79057C12.0683 5.713 12.1192 5.61419 12.1397 5.50741C12.1604 5.40028 12.1498 5.28902 12.109 5.18791C12.0683 5.08676 11.9989 4.99966 11.9088 4.93893C11.8186 4.87812 11.7122 4.84688 11.6036 4.85025Z" fill="#1DB954" stroke="#1DB954" stroke-width="0.3"/>
</g>
<defs>
<clipPath id="clip0_1_4412">
<rect width="16" height="16" fill="white"/>
</clipPath>
<clipPath id="clip1_1_4412">
<rect width="16" height="16" fill="white"/>
</clipPath>
</defs>
</svg>
