<svg xmlns="http://www.w3.org/2000/svg" width="11" height="12" viewBox="0 0 11 12" fill="none">
<path d="M0 5.50648C0 5.44218 0 5.37758 0 5.31327C0.0511023 5.19126 0.13522 5.09853 0.242593 5.02101C0.36432 4.93288 0.481739 4.83871 0.596575 4.74167C0.815626 4.55593 0.898596 4.32166 0.826823 4.0406C0.780889 3.8603 0.724906 3.68259 0.678397 3.50259C0.615812 3.262 0.737825 3.05558 0.977546 2.99128C1.16416 2.94104 1.35335 2.89998 1.53737 2.84228C1.79403 2.76132 1.95366 2.58476 2.00189 2.31719C2.03289 2.14464 2.05787 1.97124 2.08199 1.79755C2.12333 1.50041 2.31453 1.35945 2.60909 1.41084C2.77474 1.43955 2.94039 1.46711 3.10633 1.49438C3.40376 1.5429 3.63142 1.43151 3.79592 1.18576C3.89554 1.03704 3.98598 0.88259 4.08474 0.733015C4.22771 0.515974 4.45336 0.46803 4.67155 0.607844C4.82515 0.706316 4.97415 0.812539 5.1286 0.909576C5.37292 1.06288 5.62211 1.06403 5.86729 0.911873C6.01629 0.819429 6.15984 0.718374 6.30625 0.621624C6.54597 0.463436 6.76847 0.507936 6.92407 0.74737C7.02341 0.90039 7.11442 1.05944 7.2192 1.20844C7.37883 1.43524 7.5996 1.53773 7.87837 1.49639C8.06239 1.46912 8.2447 1.43093 8.42872 1.40567C8.696 1.36921 8.87974 1.51563 8.9162 1.78205C8.94061 1.95918 8.96529 2.13632 8.99716 2.31231C9.04798 2.59308 9.21592 2.77194 9.48895 2.84974C9.66092 2.89883 9.83518 2.93903 10.0077 2.9864C10.2724 3.05903 10.3867 3.26315 10.3138 3.52986C10.2675 3.69896 10.2176 3.86691 10.1737 4.03658C10.0996 4.32223 10.1843 4.5588 10.4082 4.74541C10.5429 4.85766 10.683 4.96331 10.8199 5.07298C11.0344 5.24408 11.0591 5.47864 10.8845 5.69309C10.7783 5.82372 10.6706 5.95291 10.5627 6.08182C10.3663 6.31637 10.3382 6.59887 10.4834 6.87046C10.5627 7.01889 10.6405 7.16788 10.7174 7.31746C10.8371 7.55029 10.7662 7.77709 10.5337 7.89738C10.3715 7.98121 10.2067 8.05988 10.0439 8.14198C9.78867 8.2706 9.64685 8.53846 9.67498 8.82383C9.69135 8.9912 9.70226 9.15915 9.70829 9.3271C9.71805 9.5941 9.55441 9.76635 9.28626 9.77869C9.11114 9.78673 8.93601 9.79448 8.7606 9.80051C8.49303 9.8097 8.25618 9.97822 8.16058 10.2306C8.09741 10.398 8.03627 10.5662 7.97225 10.7333C7.87291 10.9925 7.66247 11.0864 7.40294 10.9871C7.22925 10.9205 7.05901 10.8441 6.88302 10.7844C6.62779 10.698 6.39468 10.7465 6.19859 10.9345C6.0694 11.0583 5.94739 11.1895 5.82107 11.3164C5.61522 11.5231 5.38555 11.5242 5.182 11.3195C5.06085 11.1978 4.94142 11.0741 4.81969 10.9529C4.60725 10.7416 4.35834 10.6928 4.07986 10.7961C3.91564 10.857 3.7543 10.9268 3.59065 10.9891C3.33715 11.0855 3.12528 10.9908 3.02853 10.7382C2.96307 10.5679 2.90135 10.3959 2.83646 10.2254C2.74287 9.97909 2.50487 9.80999 2.24362 9.8008C2.06476 9.79449 1.8859 9.78731 1.70733 9.77841C1.44579 9.76549 1.28158 9.5918 1.29076 9.33227C1.29679 9.16432 1.30713 8.99608 1.32407 8.829C1.35306 8.53817 1.21296 8.27204 0.950847 8.13883C0.788066 8.05615 0.623563 7.97719 0.461069 7.89394C0.23886 7.78025 0.164791 7.55632 0.276469 7.3321C0.353123 7.17822 0.43322 7.02635 0.513893 6.87476C0.661745 6.59743 0.630453 6.31953 0.433795 6.07579C0.283646 5.8909 0.107372 5.72467 0 5.50648ZM5.50096 2.45528C3.58864 2.43719 1.93902 3.98404 1.94074 6.00631C1.94246 7.99586 3.52147 9.55649 5.48747 9.56309C7.47902 9.56969 9.05429 7.9927 9.05802 6.0089C9.06204 3.98777 7.4084 2.43346 5.50096 2.45528Z" fill="#2F7EF3"/>
<path d="M5.50105 2.45531C7.40849 2.43349 9.06213 3.9878 9.05811 6.00892C9.05438 7.99244 7.47882 9.56943 5.48756 9.56312C3.52184 9.5568 1.94255 7.99617 1.94083 6.00634C1.93911 3.98407 3.58845 2.43751 5.50105 2.45531ZM7.50409 5.06698C7.50208 5.03339 7.47911 5.01932 7.46188 5.00209C7.34848 4.88783 7.2302 4.77759 7.12197 4.65873C7.06168 4.5927 7.02752 4.59385 6.96378 4.65816C6.30318 5.32392 5.63828 5.98538 4.97711 6.65086C4.92026 6.70828 4.89069 6.70799 4.83471 6.65057C4.56685 6.37669 4.29297 6.10883 4.02454 5.83552C3.97171 5.78183 3.93985 5.78126 3.88846 5.8361C3.7785 5.95352 3.66453 6.06778 3.54682 6.17773C3.49112 6.2297 3.49486 6.26128 3.54768 6.31353C3.98004 6.74187 4.41039 7.17222 4.83844 7.60458C4.89184 7.65855 4.9217 7.65683 4.97424 7.604C5.80049 6.7746 6.62846 5.9472 7.45614 5.11951C7.47423 5.10171 7.49002 5.08277 7.50409 5.06698Z" fill="#2F7EF3"/>
<path d="M7.50413 5.06695C7.48978 5.08274 7.47399 5.10169 7.45648 5.1192C6.62879 5.94717 5.80082 6.77457 4.97457 7.60369C4.92203 7.65651 4.89217 7.65824 4.83877 7.60426C4.41043 7.1719 3.98008 6.74155 3.54801 6.31321C3.49519 6.26068 3.49145 6.22938 3.54715 6.17742C3.66486 6.06746 3.77883 5.9532 3.88879 5.83578C3.94018 5.78095 3.97204 5.78152 4.02487 5.83521C4.2933 6.10852 4.56718 6.37637 4.83504 6.65026C4.89102 6.70768 4.9206 6.70796 4.97744 6.65055C5.63861 5.98507 6.30352 5.32361 6.96411 4.65784C7.02785 4.59353 7.06201 4.59239 7.1223 4.65842C7.23053 4.77756 7.34881 4.88752 7.46222 5.00178C7.47915 5.01929 7.50212 5.03336 7.50413 5.06695Z" fill="white"/>
</svg>